<svg width="660" height="63" viewBox="0 0 660 63" fill="none" xmlns="http://www.w3.org/2000/svg">
<path d="M519.068 31.2215C519.068 22.8808 522.315 15.0426 528.213 9.14463C534.111 3.24665 541.949 6.10352e-05 550.29 6.10352e-05C558.63 6.10352e-05 566.469 3.24665 572.367 9.14463C578.265 15.0426 581.511 22.8808 581.511 31.2215C581.511 39.5621 578.265 47.4003 572.367 53.2983C560.192 65.473 540.388 65.473 528.221 53.2983C522.323 47.4003 519.076 39.5621 519.076 31.2215H519.068ZM579.957 31.2215C579.957 23.2982 576.873 15.8465 571.269 10.2423C565.665 4.63805 558.213 1.55379 550.29 1.55379C542.367 1.55379 534.915 4.63805 529.311 10.2423C523.706 15.8465 520.622 23.2982 520.622 31.2215C520.622 39.1447 523.706 46.5964 529.311 52.2006C540.882 63.7724 559.705 63.7724 571.269 52.2006C576.873 46.5964 579.957 39.1447 579.957 31.2215Z" fill="#FEC413"/>
<path d="M658.887 30.5334H494.663V31.6929H658.887V30.5334Z" fill="white"/>
<path d="M631.136 35.8749C633.766 35.8749 635.898 33.743 635.898 31.1132C635.898 28.4834 633.766 26.3516 631.136 26.3516C628.506 26.3516 626.374 28.4834 626.374 31.1132C626.374 33.743 628.506 35.8749 631.136 35.8749Z" fill="#FEC413"/>
<path d="M620.391 54.0946C607.699 54.0946 597.41 43.806 597.41 31.1133C597.41 18.4207 607.699 8.13208 620.391 8.13208C622.695 8.13208 624.913 8.4722 627.016 9.09833C617.555 11.943 610.659 20.7165 610.659 31.1056C610.659 41.4947 617.555 50.2682 627.016 53.1128C624.921 53.7467 622.695 54.0791 620.391 54.0791V54.0946Z" fill="#15002D"/>
<path d="M596.637 31.1142C596.637 19.3361 606.225 9.74817 618.003 9.74817C620.103 9.74817 622.175 10.0541 624.163 10.652L626.374 11.3195L624.163 11.987C615.792 14.5039 609.945 22.3675 609.945 31.1211C609.945 39.8747 615.792 47.7383 624.163 50.2552L626.374 50.9227L624.163 51.5902C622.175 52.1881 620.103 52.494 618.003 52.494C606.225 52.494 596.637 42.9061 596.637 31.1281V31.1142ZM621.542 11.4516C620.381 11.243 619.192 11.1387 617.996 11.1387C606.983 11.1387 598.021 20.1009 598.021 31.1142C598.021 42.1274 606.983 51.0896 617.996 51.0896C619.192 51.0896 620.381 50.9853 621.542 50.7767C613.79 47.4602 608.547 39.68 608.547 31.1142C608.547 22.5483 613.79 14.7681 621.542 11.4516Z" fill="#FEC413"/>
<path d="M652.424 24.6558L645.969 31.1111L652.424 37.5663L658.879 31.1111L652.424 24.6558Z" fill="#15002D"/>
<path d="M644.88 31.1132L652.432 23.561L659.984 31.1132L652.432 38.6654L644.88 31.1132ZM652.424 25.7486L647.06 31.1132L652.424 36.4778L657.789 31.1132L652.424 25.7486Z" fill="#FEC413"/>
<path d="M488.838 35.0051L489.496 34.4097L493.459 38.7887L492.802 39.3842L488.838 35.0051ZM493.589 40.2588L494.247 39.6633L495.041 40.5379L494.383 41.1333L493.589 40.2588ZM494.973 41.7908L495.63 41.1954L499.594 45.5744L498.936 46.1699L494.973 41.7908ZM499.73 47.0444L500.388 46.449L501.181 47.3236L500.524 47.919L499.73 47.0444ZM501.113 48.5765L501.771 47.9811L504.059 50.5117L503.402 51.1072L501.113 48.5765Z" fill="#FEC413"/>
<path d="M488.838 27.444L492.802 23.0649L493.459 23.6604L489.496 28.0394L488.838 27.444ZM493.589 22.1903L494.383 21.3158L495.041 21.9112L494.247 22.7858L493.589 22.1903ZM494.973 20.6583L498.936 16.2792L499.594 16.8747L495.63 21.2537L494.973 20.6583ZM499.73 15.4046L500.524 14.5301L501.181 15.1255L500.388 16.0001L499.73 15.4046ZM501.113 13.8726L503.402 11.3419L504.059 11.9374L501.771 14.4681L501.113 13.8726Z" fill="#FEC413"/>
<path d="M471.018 31.2215C471.018 27.5061 472.457 24.014 475.074 21.3717C477.704 18.717 481.215 17.2469 484.955 17.2283C488.695 17.2097 492.212 18.6487 494.873 21.2849C497.528 23.9148 498.998 27.4255 499.017 31.1657C499.017 31.1843 499.017 31.2091 499.017 31.2277C499.017 34.9431 497.578 38.4352 494.96 41.0775C492.33 43.7322 488.82 45.2022 485.079 45.2209C481.339 45.2395 477.822 43.8005 475.161 41.1643C472.507 38.5344 471.037 35.0237 471.018 31.2835V31.2215ZM498.123 31.2277C498.123 31.2277 498.123 31.1843 498.123 31.1657C498.105 27.6612 496.728 24.38 494.241 21.9113C491.753 19.4489 488.454 18.0967 484.955 18.1153C481.451 18.1339 478.17 19.5109 475.701 21.9982C473.251 24.473 471.905 27.748 471.905 31.2277V31.2897C471.924 34.7942 473.3 38.0754 475.788 40.5441C478.275 43.0065 481.575 44.3587 485.073 44.3401C488.578 44.3215 491.859 42.9445 494.327 40.4572C496.778 37.9824 498.123 34.7074 498.123 31.2277Z" fill="#FEC413"/>
<path d="M465.963 50.5117L468.252 47.9811L468.909 48.5765L466.62 51.1072L465.963 50.5117ZM468.847 47.3236L469.641 46.449L470.298 47.0444L469.505 47.919L468.847 47.3236ZM470.435 45.5744L474.398 41.1954L475.056 41.7908L471.092 46.1699L470.435 45.5744ZM474.988 40.5379L475.782 39.6633L476.439 40.2588L475.645 41.1333L474.988 40.5379ZM476.569 38.7887L480.533 34.4097L481.19 35.0051L477.227 39.3842L476.569 38.7887Z" fill="#FEC413"/>
<path d="M465.963 11.9374L466.62 11.3419L468.909 13.8726L468.252 14.4681L465.963 11.9374ZM468.847 15.1193L469.505 14.5239L470.298 15.3984L469.641 15.9939L468.847 15.1193ZM470.435 16.8747L471.092 16.2792L475.056 20.6583L474.398 21.2537L470.435 16.8747ZM474.988 21.905L475.645 21.3096L476.439 22.1841L475.782 22.7796L474.988 21.905ZM476.569 23.6604L477.227 23.0649L481.19 27.444L480.533 28.0394L476.569 23.6604Z" fill="#FEC413"/>
<path d="M481.997 36.7046L485.011 51.0637L488.026 36.7046L495.128 41.3442L490.488 34.2421L504.847 31.2277L490.488 28.2132L495.128 21.1111C495.128 21.1111 491.487 23.4868 488.026 25.7507L485.011 11.3916C485.011 11.3916 483.2 20.0071 481.997 25.7507L474.895 21.1111C474.895 21.1111 477.27 24.7521 479.534 28.2132L465.175 31.2277C465.175 31.2277 473.791 33.0388 479.534 34.2421L474.895 41.3442L481.997 36.7046Z" fill="#15002D"/>
<path d="M463.017 31.2215L478.809 27.9031L473.369 19.5791L481.693 25.0126L485.011 9.2207L488.33 25.0126L496.654 19.5791L491.214 27.9031L507.006 31.2215L491.214 34.5399L496.654 42.8638L488.33 37.4303L485.011 53.2223L481.693 37.4303L473.369 42.8638L478.809 34.5399L463.017 31.2215ZM480.254 28.5109L467.321 31.2277L480.254 33.9444L476.414 39.8245L482.294 35.9851L485.011 48.9176L487.728 35.9851L493.608 39.8245L489.769 33.9444L502.701 31.2277L489.769 28.5109L493.608 22.6308L487.728 26.4703L485.011 13.5377L482.294 26.4703L476.414 22.6308L480.254 28.5109Z" fill="#FEC413"/>
<path d="M140.932 31.2078C140.932 39.5484 137.685 47.3867 131.787 53.2846C125.889 59.1826 118.051 62.4292 109.71 62.4292C101.37 62.4292 93.5314 59.1826 87.6334 53.2846C81.7354 47.3867 78.4888 39.5485 78.4888 31.2078C78.4888 22.8672 81.7354 15.029 87.6334 9.13098C99.8081 -3.04374 119.612 -3.04375 131.779 9.13098C137.677 15.029 140.924 22.8671 140.924 31.2078L140.932 31.2078ZM80.0425 31.2078C80.0425 39.131 83.1268 46.5827 88.731 52.187C94.3353 57.7912 101.787 60.8755 109.71 60.8755C117.633 60.8755 125.085 57.7912 130.689 52.187C136.294 46.5827 139.378 39.131 139.378 31.2078C139.378 23.2846 136.294 15.8329 130.689 10.2286C119.118 -1.34315 100.295 -1.34315 88.731 10.2286C83.1268 15.8329 80.0425 23.2846 80.0425 31.2078Z" fill="#FEC413"/>
<path d="M1.11339 31.8958L165.337 31.8958L165.337 30.7363L1.11339 30.7363L1.11339 31.8958Z" fill="white"/>
<path d="M28.8639 26.5543C26.2341 26.5543 24.1022 28.6862 24.1022 31.316C24.1022 33.9458 26.2341 36.0776 28.8639 36.0776C31.4937 36.0776 33.6256 33.9458 33.6256 31.316C33.6256 28.6862 31.4937 26.5543 28.8639 26.5543Z" fill="#FEC413"/>
<path d="M39.6086 8.33489C52.3012 8.33489 62.5898 18.6235 62.5898 31.3161C62.5898 44.0088 52.3012 54.2974 39.6086 54.2974C37.3051 54.2974 35.0865 53.9572 32.984 53.3311C42.4455 50.4865 49.3406 41.713 49.3406 31.3239C49.3406 20.9348 42.4455 12.1612 32.984 9.3166C35.0788 8.68274 37.3051 8.35035 39.6086 8.35035L39.6086 8.33489Z" fill="#15002D"/>
<path d="M63.3628 31.3153C63.3628 43.0933 53.7749 52.6813 41.9969 52.6813C39.8971 52.6813 37.8251 52.3754 35.8366 51.7774L33.6256 51.1099L35.8366 50.4425C44.2078 47.9256 50.0551 40.0619 50.0551 31.3083C50.0551 22.5547 44.2078 14.6911 35.8366 12.1742L33.6256 11.5067L35.8366 10.8393C37.8251 10.2413 39.8971 9.9354 41.9968 9.9354C53.7749 9.9354 63.3628 19.5233 63.3628 31.3014L63.3628 31.3153ZM38.4579 50.9778C39.619 51.1864 40.8079 51.2907 42.0038 51.2907C53.017 51.2907 61.9792 42.3285 61.9792 31.3153C61.9792 20.302 53.017 11.3399 42.0038 11.3399C40.8079 11.3399 39.619 11.4442 38.4578 11.6527C46.2102 14.9692 51.4527 22.7494 51.4527 31.3153C51.4527 39.8811 46.2102 47.6613 38.4579 50.9778Z" fill="#FEC413"/>
<path d="M7.57594 37.7734L14.0312 31.3181L7.57593 24.8629L1.12068 31.3181L7.57594 37.7734Z" fill="#15002D"/>
<path d="M15.12 31.316L7.5678 38.8682L0.0155947 31.316L7.5678 23.7638L15.12 31.316ZM7.57554 36.6806L12.9402 31.316L7.57554 25.9514L2.21093 31.316L7.57554 36.6806Z" fill="#FEC413"/>
<path d="M171.162 27.4241L170.504 28.0195L166.541 23.6405L167.198 23.045L171.162 27.4241ZM166.411 22.1704L165.753 22.7659L164.959 21.8913L165.617 21.2959L166.411 22.1704ZM165.027 20.6384L164.37 21.2338L160.406 16.8548L161.064 16.2593L165.027 20.6384ZM160.27 15.3848L159.612 15.9802L158.819 15.1056L159.476 14.5102L160.27 15.3848ZM158.887 13.8527L158.229 14.4482L155.94 11.9175L156.598 11.322L158.887 13.8527Z" fill="#FEC413"/>
<path d="M171.162 34.9853L167.198 39.3644L166.541 38.769L170.504 34.3899L171.162 34.9853ZM166.411 40.239L165.617 41.1136L164.959 40.5181L165.753 39.6435L166.411 40.239ZM165.027 41.771L161.064 46.1501L160.406 45.5546L164.37 41.1756L165.027 41.771ZM160.27 47.0247L159.476 47.8992L158.819 47.3038L159.612 46.4292L160.27 47.0247ZM158.887 48.5567L156.598 51.0874L155.941 50.492L158.229 47.9613L158.887 48.5567Z" fill="#FEC413"/>
<path d="M188.982 31.2078C188.982 34.9232 187.543 38.4153 184.925 41.0576C182.296 43.7124 178.785 45.1824 175.045 45.201C171.304 45.2196 167.788 43.7806 165.127 41.1445C162.472 38.5145 161.002 35.0039 160.983 31.2637C160.983 31.245 160.983 31.2202 160.983 31.2016C160.983 27.4862 162.422 23.9942 165.04 21.3518C167.67 18.6971 171.18 17.2271 174.921 17.2085C178.661 17.1899 182.178 18.6289 184.839 21.265C187.493 23.8949 188.963 27.4056 188.982 31.1458L188.982 31.2078ZM161.876 31.2016C161.876 31.2016 161.876 31.245 161.876 31.2637C161.895 34.7682 163.272 38.0493 165.759 40.518C168.247 42.9804 171.546 44.3326 175.045 44.314C178.549 44.2954 181.83 42.9184 184.299 40.4312C186.749 37.9563 188.095 34.6813 188.095 31.2016L188.095 31.1396C188.076 27.6351 186.699 24.3539 184.212 21.8853C181.725 19.4228 178.425 18.0706 174.927 18.0892C171.422 18.1078 168.141 19.4848 165.672 21.9721C163.222 24.447 161.876 27.7219 161.876 31.2016Z" fill="#FEC413"/>
<path d="M194.037 11.9175L191.748 14.4481L191.091 13.8527L193.38 11.322L194.037 11.9175ZM191.153 15.1056L190.359 15.9802L189.701 15.3847L190.495 14.5102L191.153 15.1056ZM189.565 16.8548L185.602 21.2338L184.944 20.6384L188.908 16.2593L189.565 16.8548ZM185.012 21.8913L184.218 22.7659L183.561 22.1704L184.355 21.2959L185.012 21.8913ZM183.431 23.6405L179.467 28.0195L178.81 27.4241L182.773 23.045L183.431 23.6405Z" fill="#FEC413"/>
<path d="M194.037 50.4919L193.38 51.0874L191.091 48.5567L191.748 47.9613L194.037 50.4919ZM191.153 47.31L190.495 47.9054L189.701 47.0309L190.359 46.4354L191.153 47.31ZM189.565 45.5546L188.908 46.1501L184.944 41.771L185.602 41.1756L189.565 45.5546ZM185.012 40.5243L184.355 41.1198L183.561 40.2452L184.218 39.6497L185.012 40.5243ZM183.431 38.769L182.773 39.3644L178.81 34.9853L179.467 34.3899L183.431 38.769Z" fill="#FEC413"/>
<path d="M178.003 25.7246L174.989 11.3655L171.974 25.7246L164.872 21.085L169.512 28.1871L155.153 31.2015L169.512 34.216L164.872 41.3181C164.872 41.3181 168.513 38.9424 171.974 36.6785L174.989 51.0376C174.989 51.0376 176.8 42.4221 178.003 36.6785L185.105 41.3181C185.105 41.3181 182.73 37.6771 180.466 34.216L194.825 31.2015C194.825 31.2015 186.209 29.3904 180.466 28.1871L185.105 21.085L178.003 25.7246Z" fill="#15002D"/>
<path d="M196.983 31.2077L181.191 34.5261L186.631 42.8501L178.307 37.4166L174.989 53.2085L171.67 37.4166L163.346 42.8501L168.786 34.5261L152.994 31.2077L168.786 27.8893L163.346 19.5654L171.67 24.9989L174.989 9.20695L178.307 24.9989L186.631 19.5654L181.191 27.8893L196.983 31.2077ZM179.746 33.9183L192.679 31.2015L179.746 28.4848L183.586 22.6047L177.706 26.4441L174.989 13.5116L172.272 26.4441L166.392 22.6047L170.231 28.4848L157.299 31.2015L170.231 33.9183L166.392 39.7984L172.272 35.9589L174.989 48.8915L177.706 35.9589L183.586 39.7984L179.746 33.9183Z" fill="#FEC413"/>
<rect x="202.274" y="2.41162" width="255.453" height="57.4259" rx="28.713" stroke="#FEC413" stroke-width="1.5"/>
</svg>
