<svg width="900" height="424" viewBox="0 0 900 424" fill="none" xmlns="http://www.w3.org/2000/svg">
<path d="M891.783 19.8947V7.95918H879.838L872.402 0.523621H27.5977L20.1621 7.95918H8.21695V19.8947L0.308228 27.8034V396.337L8.21695 404.245V416.181H20.1621L27.5977 423.616H872.402L879.838 416.181H891.783V404.245L899.692 396.337V27.8034L891.783 19.8947ZM890.335 9.40766V18.4462L881.286 9.40766H890.335ZM890.335 403.637L879.239 414.732H502.691C502.305 386.197 478.955 363.099 450.323 363.099C421.692 363.099 398.352 386.197 397.956 414.732H20.7608L9.66544 403.637V20.5031L20.7608 9.40766H397.956C398.352 37.9428 421.692 61.0413 450.323 61.0413C478.955 61.0413 502.305 37.9428 502.691 9.40766H879.239L890.335 20.5031V403.637ZM28.1964 1.97211H871.804L877.791 7.95918H501.252V8.68342C501.252 36.7551 478.405 59.5928 450.323 59.5928C422.242 59.5928 399.404 36.7551 399.404 8.68342V7.95918H22.2093L28.1964 1.97211ZM9.66544 9.40766H18.7136L9.66544 18.4462V9.40766ZM1.75671 395.728V28.4118L8.21695 21.9515V402.188L1.75671 395.728ZM9.66544 414.732V405.694L18.7136 414.732H9.66544ZM871.804 422.168H28.1964L22.2093 416.181H399.404V415.457C399.404 387.385 422.242 364.547 450.323 364.547C478.405 364.547 501.252 387.385 501.252 415.457V416.181H877.791L871.804 422.168ZM890.335 414.732H881.286L890.335 405.694V414.732ZM898.243 395.728L891.783 402.188V21.9515L898.243 28.4118V395.728Z" fill="#FBC841"/>
<path d="M450.323 49.4921C462.925 49.4921 473.181 39.2368 473.181 26.635C473.181 23.6608 472.621 20.7734 471.51 18.0503L470.834 16.399L470.168 18.0503C466.875 26.1715 459.082 31.415 450.314 31.415C441.546 31.415 433.753 26.1715 430.47 18.0503L429.803 16.399L429.127 18.0503C428.017 20.7734 427.457 23.6608 427.457 26.635C427.457 39.2368 437.712 49.4921 450.314 49.4921H450.323ZM429.881 20.252C433.734 27.9772 441.575 32.8731 450.323 32.8731C459.072 32.8731 466.913 27.9772 470.766 20.252C471.413 22.3088 471.732 24.4429 471.732 26.635C471.732 38.4353 462.124 48.0436 450.323 48.0436C438.523 48.0436 428.915 38.4353 428.915 26.635C428.915 24.4429 429.243 22.3088 429.881 20.252Z" fill="#FBC841"/>
<path d="M26.9742 24.6456C18.0634 33.5564 18.0634 48.0596 26.9742 56.9704C29.0773 59.0735 31.515 60.7191 34.2258 61.8594L35.8714 62.5491L35.1749 60.9103C31.7608 52.8393 33.5635 43.6212 39.7635 37.4212C45.9635 31.2212 55.1816 29.4185 63.2457 32.8395L64.8845 33.5359L64.1949 31.8903C63.0545 29.1795 61.409 26.7419 59.3059 24.6388C50.395 15.7279 35.8919 15.7279 26.981 24.6388L26.9742 24.6456ZM62.1054 30.8661C53.9184 28.128 44.912 30.2106 38.7256 36.397C32.5392 42.5833 30.4566 51.5898 33.1947 59.7768C31.2828 58.7799 29.5485 57.4962 27.9985 55.9462C19.6544 47.6021 19.6544 34.0139 27.9985 25.6698C36.3426 17.3257 49.9307 17.3257 58.2748 25.6698C59.8248 27.2198 61.1017 28.961 62.1054 30.8661Z" fill="#FBC841"/>
<path d="M26.9811 399.293C35.8919 408.204 50.395 408.204 59.3059 399.293C61.409 397.19 63.0546 394.752 64.1949 392.041L64.8845 390.396L63.2458 391.092C55.1748 394.506 45.9567 392.704 39.7567 386.504C33.5566 380.304 31.754 371.086 35.1749 363.021L35.8714 361.383L34.2258 362.072C31.515 363.213 29.0773 364.858 26.9742 366.961C18.0634 375.872 18.0634 390.375 26.9742 399.286L26.9811 399.293ZM33.2016 364.162C30.4635 372.349 32.5461 381.355 38.7324 387.542C44.9188 393.728 53.9252 395.811 62.1123 393.072C61.1153 394.984 59.8316 396.719 58.2816 398.269C49.9375 406.613 36.3494 406.613 28.0053 398.269C19.6612 389.925 19.6612 376.336 28.0053 367.992C29.5553 366.442 31.2965 365.166 33.2016 364.162Z" fill="#FBC841"/>
<path d="M873.683 399.286C882.594 390.375 882.594 375.872 873.683 366.961C871.58 364.858 869.142 363.213 866.431 362.072L864.786 361.383L865.482 363.021C868.896 371.092 867.094 380.311 860.894 386.511C854.694 392.711 845.475 394.513 837.411 391.092L835.773 390.396L836.462 392.041C837.603 394.752 839.248 397.19 841.351 399.293C850.262 408.204 864.765 408.204 873.676 399.293L873.683 399.286ZM838.552 393.066C846.739 395.804 855.745 393.721 861.931 387.535C868.118 381.348 870.2 372.342 867.462 364.155C869.374 365.152 871.109 366.436 872.659 367.986C881.003 376.33 881.003 389.918 872.659 398.262C864.315 406.606 850.726 406.606 842.382 398.262C840.832 396.712 839.555 394.971 838.552 393.066Z" fill="#FBC841"/>
<path d="M873.676 24.8434C864.765 15.9326 850.262 15.9326 841.351 24.8434C839.248 26.9465 837.603 29.3842 836.462 32.095L835.773 33.7406L837.411 33.0441C845.482 29.63 854.7 31.4326 860.9 37.6327C867.1 43.8327 868.903 53.0508 865.482 61.1149L864.786 62.7537L866.431 62.064C869.142 60.9237 871.58 59.2781 873.683 57.175C882.594 48.2642 882.594 33.761 873.683 24.8502L873.676 24.8434ZM867.456 59.9746C870.194 51.7876 868.111 42.7811 861.925 36.5948C855.738 30.4084 846.732 28.3258 838.545 31.0639C839.542 29.152 840.825 27.4176 842.375 25.8676C850.72 17.5235 864.308 17.5236 872.652 25.8676C880.996 34.2117 880.996 47.7999 872.652 56.144C871.102 57.694 869.361 58.9708 867.456 59.9746Z" fill="#FBC841"/>
<path d="M454.215 18.0793C456.368 15.9258 456.368 12.4398 454.215 10.2961C452.062 8.14265 448.576 8.14265 446.432 10.2961C444.278 12.4495 444.278 15.9355 446.432 18.0793C448.585 20.223 452.071 20.2327 454.215 18.0793Z" fill="#FBC841"/>
<path d="M46.4347 49.6096C46.4347 52.6549 48.8996 55.1199 51.9382 55.1131C54.9836 55.1131 57.4486 52.6481 57.4418 49.6096C57.4418 46.5642 54.9768 44.0992 51.9382 44.106C48.8996 44.1128 46.4278 46.571 46.4347 49.6096Z" fill="#FBC841"/>
<path d="M51.945 379.833C54.9904 379.833 57.4554 377.368 57.4486 374.329C57.4486 371.284 54.9836 368.819 51.945 368.825C48.8996 368.825 46.4346 371.29 46.4415 374.329C46.4483 377.368 48.9065 379.839 51.945 379.833Z" fill="#FBC841"/>
<path d="M854.222 374.322C854.222 371.277 851.757 368.812 848.719 368.819C845.673 368.819 843.208 371.284 843.215 374.322C843.215 377.368 845.68 379.833 848.719 379.826C851.757 379.819 854.229 377.361 854.222 374.322Z" fill="#FBC841"/>
<path d="M848.712 44.3038C845.667 44.3038 843.202 46.7688 843.209 49.8074C843.209 52.8528 845.674 55.3177 848.712 55.3109C851.757 55.3109 854.222 52.8459 854.216 49.8074C854.209 46.7688 851.751 44.297 848.712 44.3038Z" fill="#FBC841"/>
<path d="M450.323 374.648C437.722 374.648 427.466 384.903 427.466 397.505C427.466 400.479 428.026 403.367 429.137 406.09L429.813 407.741L430.479 406.09C433.772 397.969 441.555 392.725 450.323 392.725C459.092 392.725 466.884 397.969 470.177 406.09L470.844 407.741L471.52 406.09C472.63 403.367 473.19 400.479 473.19 397.505C473.19 384.903 462.935 374.648 450.333 374.648H450.323ZM470.766 403.888C466.913 396.163 459.072 391.267 450.323 391.267C441.575 391.267 433.734 396.163 429.881 403.888C429.243 401.831 428.915 399.697 428.915 397.505C428.915 385.705 438.523 376.096 450.323 376.096C462.124 376.096 471.732 385.705 471.732 397.505C471.732 399.697 471.404 401.831 470.766 403.888Z" fill="#FBC841"/>
<path d="M446.432 406.061C444.278 408.214 444.278 411.7 446.432 413.844C448.585 415.988 452.071 415.997 454.215 413.844C456.359 411.691 456.368 408.204 454.215 406.061C452.062 403.907 448.576 403.907 446.432 406.061Z" fill="#FBC841"/>
<path d="M64.2382 16.7971C64.2382 18.2699 65.4321 19.4638 66.9049 19.4638C68.3776 19.4638 69.5715 18.2699 69.5715 16.7971C69.5715 15.3244 68.3776 14.1305 66.9049 14.1305C65.4321 14.1305 64.2382 15.3244 64.2382 16.7971ZM386.038 16.7971C386.038 18.2699 387.232 19.4638 388.705 19.4638C390.177 19.4638 391.371 18.2699 391.371 16.7971C391.371 15.3244 390.177 14.1305 388.705 14.1305C387.232 14.1305 386.038 15.3244 386.038 16.7971ZM68.9161 17.2971C69.1923 17.2971 69.4161 17.0733 69.4161 16.7971C69.4161 16.521 69.1923 16.2971 68.9161 16.2971V17.2971ZM72.9386 16.2971C72.6625 16.2971 72.4386 16.521 72.4386 16.7971C72.4386 17.0733 72.6625 17.2971 72.9386 17.2971V16.2971ZM76.9611 17.2971C77.2372 17.2971 77.4611 17.0733 77.4611 16.7971C77.4611 16.521 77.2372 16.2971 76.9611 16.2971V17.2971ZM80.9836 16.2971C80.7075 16.2971 80.4836 16.521 80.4836 16.7971C80.4836 17.0733 80.7075 17.2971 80.9836 17.2971V16.2971ZM85.0061 17.2971C85.2822 17.2971 85.5061 17.0733 85.5061 16.7971C85.5061 16.521 85.2822 16.2971 85.0061 16.2971V17.2971ZM89.0286 16.2971C88.7525 16.2971 88.5286 16.521 88.5286 16.7971C88.5286 17.0733 88.7525 17.2971 89.0286 17.2971V16.2971ZM93.0511 17.2971C93.3272 17.2971 93.5511 17.0733 93.5511 16.7971C93.5511 16.521 93.3272 16.2971 93.0511 16.2971V17.2971ZM97.0736 16.2971C96.7975 16.2971 96.5736 16.521 96.5736 16.7971C96.5736 17.0733 96.7975 17.2971 97.0736 17.2971V16.2971ZM101.096 17.2971C101.372 17.2971 101.596 17.0733 101.596 16.7971C101.596 16.521 101.372 16.2971 101.096 16.2971V17.2971ZM105.119 16.2971C104.842 16.2971 104.619 16.521 104.619 16.7971C104.619 17.0733 104.842 17.2971 105.119 17.2971V16.2971ZM109.141 17.2971C109.417 17.2971 109.641 17.0733 109.641 16.7971C109.641 16.521 109.417 16.2971 109.141 16.2971V17.2971ZM113.164 16.2971C112.887 16.2971 112.664 16.521 112.664 16.7971C112.664 17.0733 112.887 17.2971 113.164 17.2971V16.2971ZM117.186 17.2971C117.462 17.2971 117.686 17.0733 117.686 16.7971C117.686 16.521 117.462 16.2971 117.186 16.2971V17.2971ZM121.209 16.2971C120.932 16.2971 120.709 16.521 120.709 16.7971C120.709 17.0733 120.932 17.2971 121.209 17.2971V16.2971ZM125.231 17.2971C125.507 17.2971 125.731 17.0733 125.731 16.7971C125.731 16.521 125.507 16.2971 125.231 16.2971V17.2971ZM129.254 16.2971C128.977 16.2971 128.754 16.521 128.754 16.7971C128.754 17.0733 128.977 17.2971 129.254 17.2971V16.2971ZM133.276 17.2971C133.552 17.2971 133.776 17.0733 133.776 16.7971C133.776 16.521 133.552 16.2971 133.276 16.2971V17.2971ZM137.299 16.2971C137.022 16.2971 136.799 16.521 136.799 16.7971C136.799 17.0733 137.022 17.2971 137.299 17.2971V16.2971ZM141.321 17.2971C141.597 17.2971 141.821 17.0733 141.821 16.7971C141.821 16.521 141.597 16.2971 141.321 16.2971V17.2971ZM145.344 16.2971C145.067 16.2971 144.844 16.521 144.844 16.7971C144.844 17.0733 145.067 17.2971 145.344 17.2971V16.2971ZM149.366 17.2971C149.642 17.2971 149.866 17.0733 149.866 16.7971C149.866 16.521 149.642 16.2971 149.366 16.2971V17.2971ZM153.389 16.2971C153.112 16.2971 152.889 16.521 152.889 16.7971C152.889 17.0733 153.112 17.2971 153.389 17.2971V16.2971ZM157.411 17.2971C157.687 17.2971 157.911 17.0733 157.911 16.7971C157.911 16.521 157.687 16.2971 157.411 16.2971V17.2971ZM161.434 16.2971C161.157 16.2971 160.934 16.521 160.934 16.7971C160.934 17.0733 161.157 17.2971 161.434 17.2971V16.2971ZM165.456 17.2971C165.732 17.2971 165.956 17.0733 165.956 16.7971C165.956 16.521 165.732 16.2971 165.456 16.2971V17.2971ZM169.479 16.2971C169.202 16.2971 168.979 16.521 168.979 16.7971C168.979 17.0733 169.202 17.2971 169.479 17.2971V16.2971ZM173.501 17.2971C173.777 17.2971 174.001 17.0733 174.001 16.7971C174.001 16.521 173.777 16.2971 173.501 16.2971V17.2971ZM177.524 16.2971C177.247 16.2971 177.024 16.521 177.024 16.7971C177.024 17.0733 177.247 17.2971 177.524 17.2971V16.2971ZM181.546 17.2971C181.822 17.2971 182.046 17.0733 182.046 16.7971C182.046 16.521 181.822 16.2971 181.546 16.2971V17.2971ZM185.569 16.2971C185.292 16.2971 185.069 16.521 185.069 16.7971C185.069 17.0733 185.292 17.2971 185.569 17.2971V16.2971ZM189.591 17.2971C189.867 17.2971 190.091 17.0733 190.091 16.7971C190.091 16.521 189.867 16.2971 189.591 16.2971V17.2971ZM193.614 16.2971C193.337 16.2971 193.114 16.521 193.114 16.7971C193.114 17.0733 193.337 17.2971 193.614 17.2971V16.2971ZM197.636 17.2971C197.912 17.2971 198.136 17.0733 198.136 16.7971C198.136 16.521 197.912 16.2971 197.636 16.2971V17.2971ZM201.659 16.2971C201.382 16.2971 201.159 16.521 201.159 16.7971C201.159 17.0733 201.382 17.2971 201.659 17.2971V16.2971ZM205.681 17.2971C205.957 17.2971 206.181 17.0733 206.181 16.7971C206.181 16.521 205.957 16.2971 205.681 16.2971V17.2971ZM209.704 16.2971C209.427 16.2971 209.204 16.521 209.204 16.7971C209.204 17.0733 209.427 17.2971 209.704 17.2971V16.2971ZM213.726 17.2971C214.002 17.2971 214.226 17.0733 214.226 16.7971C214.226 16.521 214.002 16.2971 213.726 16.2971V17.2971ZM217.749 16.2971C217.472 16.2971 217.249 16.521 217.249 16.7971C217.249 17.0733 217.472 17.2971 217.749 17.2971V16.2971ZM221.771 17.2971C222.047 17.2971 222.271 17.0733 222.271 16.7971C222.271 16.521 222.047 16.2971 221.771 16.2971V17.2971ZM225.794 16.2971C225.517 16.2971 225.294 16.521 225.294 16.7971C225.294 17.0733 225.517 17.2971 225.794 17.2971V16.2971ZM229.816 17.2971C230.092 17.2971 230.316 17.0733 230.316 16.7971C230.316 16.521 230.092 16.2971 229.816 16.2971V17.2971ZM233.839 16.2971C233.562 16.2971 233.339 16.521 233.339 16.7971C233.339 17.0733 233.562 17.2971 233.839 17.2971V16.2971ZM237.861 17.2971C238.137 17.2971 238.361 17.0733 238.361 16.7971C238.361 16.521 238.137 16.2971 237.861 16.2971V17.2971ZM241.883 16.2971C241.607 16.2971 241.383 16.521 241.383 16.7971C241.383 17.0733 241.607 17.2971 241.883 17.2971V16.2971ZM245.906 17.2971C246.182 17.2971 246.406 17.0733 246.406 16.7971C246.406 16.521 246.182 16.2971 245.906 16.2971V17.2971ZM249.928 16.2971C249.652 16.2971 249.428 16.521 249.428 16.7971C249.428 17.0733 249.652 17.2971 249.928 17.2971V16.2971ZM253.951 17.2971C254.227 17.2971 254.451 17.0733 254.451 16.7971C254.451 16.521 254.227 16.2971 253.951 16.2971V17.2971ZM257.973 16.2971C257.697 16.2971 257.473 16.521 257.473 16.7971C257.473 17.0733 257.697 17.2971 257.973 17.2971V16.2971ZM261.996 17.2971C262.272 17.2971 262.496 17.0733 262.496 16.7971C262.496 16.521 262.272 16.2971 261.996 16.2971V17.2971ZM266.018 16.2971C265.742 16.2971 265.518 16.521 265.518 16.7971C265.518 17.0733 265.742 17.2971 266.018 17.2971V16.2971ZM270.041 17.2971C270.317 17.2971 270.541 17.0733 270.541 16.7971C270.541 16.521 270.317 16.2971 270.041 16.2971V17.2971ZM274.063 16.2971C273.787 16.2971 273.563 16.521 273.563 16.7971C273.563 17.0733 273.787 17.2971 274.063 17.2971V16.2971ZM278.086 17.2971C278.362 17.2971 278.586 17.0733 278.586 16.7971C278.586 16.521 278.362 16.2971 278.086 16.2971V17.2971ZM282.108 16.2971C281.832 16.2971 281.608 16.521 281.608 16.7971C281.608 17.0733 281.832 17.2971 282.108 17.2971V16.2971ZM286.131 17.2971C286.407 17.2971 286.631 17.0733 286.631 16.7971C286.631 16.521 286.407 16.2971 286.131 16.2971V17.2971ZM290.153 16.2971C289.877 16.2971 289.653 16.521 289.653 16.7971C289.653 17.0733 289.877 17.2971 290.153 17.2971V16.2971ZM294.176 17.2971C294.452 17.2971 294.676 17.0733 294.676 16.7971C294.676 16.521 294.452 16.2971 294.176 16.2971V17.2971ZM298.198 16.2971C297.922 16.2971 297.698 16.521 297.698 16.7971C297.698 17.0733 297.922 17.2971 298.198 17.2971V16.2971ZM302.221 17.2971C302.497 17.2971 302.721 17.0733 302.721 16.7971C302.721 16.521 302.497 16.2971 302.221 16.2971V17.2971ZM306.243 16.2971C305.967 16.2971 305.743 16.521 305.743 16.7971C305.743 17.0733 305.967 17.2971 306.243 17.2971V16.2971ZM310.266 17.2971C310.542 17.2971 310.766 17.0733 310.766 16.7971C310.766 16.521 310.542 16.2971 310.266 16.2971V17.2971ZM314.288 16.2971C314.012 16.2971 313.788 16.521 313.788 16.7971C313.788 17.0733 314.012 17.2971 314.288 17.2971V16.2971ZM318.311 17.2971C318.587 17.2971 318.811 17.0733 318.811 16.7971C318.811 16.521 318.587 16.2971 318.311 16.2971V17.2971ZM322.333 16.2971C322.057 16.2971 321.833 16.521 321.833 16.7971C321.833 17.0733 322.057 17.2971 322.333 17.2971V16.2971ZM326.356 17.2971C326.632 17.2971 326.856 17.0733 326.856 16.7971C326.856 16.521 326.632 16.2971 326.356 16.2971V17.2971ZM330.378 16.2971C330.102 16.2971 329.878 16.521 329.878 16.7971C329.878 17.0733 330.102 17.2971 330.378 17.2971V16.2971ZM334.401 17.2971C334.677 17.2971 334.901 17.0733 334.901 16.7971C334.901 16.521 334.677 16.2971 334.401 16.2971V17.2971ZM338.423 16.2971C338.147 16.2971 337.923 16.521 337.923 16.7971C337.923 17.0733 338.147 17.2971 338.423 17.2971V16.2971ZM342.446 17.2971C342.722 17.2971 342.946 17.0733 342.946 16.7971C342.946 16.521 342.722 16.2971 342.446 16.2971V17.2971ZM346.468 16.2971C346.192 16.2971 345.968 16.521 345.968 16.7971C345.968 17.0733 346.192 17.2971 346.468 17.2971V16.2971ZM350.491 17.2971C350.767 17.2971 350.991 17.0733 350.991 16.7971C350.991 16.521 350.767 16.2971 350.491 16.2971V17.2971ZM354.513 16.2971C354.237 16.2971 354.013 16.521 354.013 16.7971C354.013 17.0733 354.237 17.2971 354.513 17.2971V16.2971ZM358.536 17.2971C358.812 17.2971 359.036 17.0733 359.036 16.7971C359.036 16.521 358.812 16.2971 358.536 16.2971V17.2971ZM362.558 16.2971C362.282 16.2971 362.058 16.521 362.058 16.7971C362.058 17.0733 362.282 17.2971 362.558 17.2971V16.2971ZM366.581 17.2971C366.857 17.2971 367.081 17.0733 367.081 16.7971C367.081 16.521 366.857 16.2971 366.581 16.2971V17.2971ZM370.603 16.2971C370.327 16.2971 370.103 16.521 370.103 16.7971C370.103 17.0733 370.327 17.2971 370.603 17.2971V16.2971ZM374.626 17.2971C374.902 17.2971 375.126 17.0733 375.126 16.7971C375.126 16.521 374.902 16.2971 374.626 16.2971V17.2971ZM378.648 16.2971C378.372 16.2971 378.148 16.521 378.148 16.7971C378.148 17.0733 378.372 17.2971 378.648 17.2971V16.2971ZM382.671 17.2971C382.947 17.2971 383.171 17.0733 383.171 16.7971C383.171 16.521 382.947 16.2971 382.671 16.2971V17.2971ZM386.693 16.2971C386.417 16.2971 386.193 16.521 386.193 16.7971C386.193 17.0733 386.417 17.2971 386.693 17.2971V16.2971ZM66.9049 16.7971V17.2971H68.9161V16.7971V16.2971H66.9049V16.7971ZM72.9386 16.7971V17.2971H76.9611V16.7971V16.2971H72.9386V16.7971ZM80.9836 16.7971V17.2971H85.0061V16.7971V16.2971H80.9836V16.7971ZM89.0286 16.7971V17.2971H93.0511V16.7971V16.2971H89.0286V16.7971ZM97.0736 16.7971V17.2971H101.096V16.7971V16.2971H97.0736V16.7971ZM105.119 16.7971V17.2971H109.141V16.7971V16.2971H105.119V16.7971ZM113.164 16.7971V17.2971H117.186V16.7971V16.2971H113.164V16.7971ZM121.209 16.7971V17.2971H125.231V16.7971V16.2971H121.209V16.7971ZM129.254 16.7971V17.2971H133.276V16.7971V16.2971H129.254V16.7971ZM137.299 16.7971V17.2971H141.321V16.7971V16.2971H137.299V16.7971ZM145.344 16.7971V17.2971H149.366V16.7971V16.2971H145.344V16.7971ZM153.389 16.7971V17.2971H157.411V16.7971V16.2971H153.389V16.7971ZM161.434 16.7971V17.2971H165.456V16.7971V16.2971H161.434V16.7971ZM169.479 16.7971V17.2971H173.501V16.7971V16.2971H169.479V16.7971ZM177.524 16.7971V17.2971H181.546V16.7971V16.2971H177.524V16.7971ZM185.569 16.7971V17.2971H189.591V16.7971V16.2971H185.569V16.7971ZM193.614 16.7971V17.2971H197.636V16.7971V16.2971H193.614V16.7971ZM201.659 16.7971V17.2971H205.681V16.7971V16.2971H201.659V16.7971ZM209.704 16.7971V17.2971H213.726V16.7971V16.2971H209.704V16.7971ZM217.749 16.7971V17.2971H221.771V16.7971V16.2971H217.749V16.7971ZM225.794 16.7971V17.2971H229.816V16.7971V16.2971H225.794V16.7971ZM233.839 16.7971V17.2971H237.861V16.7971V16.2971H233.839V16.7971ZM241.883 16.7971V17.2971H245.906V16.7971V16.2971H241.883V16.7971ZM249.928 16.7971V17.2971H253.951V16.7971V16.2971H249.928V16.7971ZM257.973 16.7971V17.2971H261.996V16.7971V16.2971H257.973V16.7971ZM266.018 16.7971V17.2971H270.041V16.7971V16.2971H266.018V16.7971ZM274.063 16.7971V17.2971H278.086V16.7971V16.2971H274.063V16.7971ZM282.108 16.7971V17.2971H286.131V16.7971V16.2971H282.108V16.7971ZM290.153 16.7971V17.2971H294.176V16.7971V16.2971H290.153V16.7971ZM298.198 16.7971V17.2971H302.221V16.7971V16.2971H298.198V16.7971ZM306.243 16.7971V17.2971H310.266V16.7971V16.2971H306.243V16.7971ZM314.288 16.7971V17.2971H318.311V16.7971V16.2971H314.288V16.7971ZM322.333 16.7971V17.2971H326.356V16.7971V16.2971H322.333V16.7971ZM330.378 16.7971V17.2971H334.401V16.7971V16.2971H330.378V16.7971ZM338.423 16.7971V17.2971H342.446V16.7971V16.2971H338.423V16.7971ZM346.468 16.7971V17.2971H350.491V16.7971V16.2971H346.468V16.7971ZM354.513 16.7971V17.2971H358.536V16.7971V16.2971H354.513V16.7971ZM362.558 16.7971V17.2971H366.581V16.7971V16.2971H362.558V16.7971ZM370.603 16.7971V17.2971H374.626V16.7971V16.2971H370.603V16.7971ZM378.648 16.7971V17.2971H382.671V16.7971V16.2971H378.648V16.7971ZM386.693 16.7971V17.2971H388.705V16.7971V16.2971H386.693V16.7971Z" fill="#FEC413"/>
<path d="M64.2382 407.343C64.2382 408.816 65.4321 410.01 66.9049 410.01C68.3776 410.01 69.5715 408.816 69.5715 407.343C69.5715 405.87 68.3776 404.676 66.9049 404.676C65.4321 404.676 64.2382 405.87 64.2382 407.343ZM386.038 407.343C386.038 408.816 387.232 410.01 388.705 410.01C390.177 410.01 391.371 408.816 391.371 407.343C391.371 405.87 390.177 404.676 388.705 404.676C387.232 404.676 386.038 405.87 386.038 407.343ZM68.9161 407.843C69.1923 407.843 69.4161 407.619 69.4161 407.343C69.4161 407.067 69.1923 406.843 68.9161 406.843V407.843ZM72.9386 406.843C72.6625 406.843 72.4386 407.067 72.4386 407.343C72.4386 407.619 72.6625 407.843 72.9386 407.843V406.843ZM76.9611 407.843C77.2372 407.843 77.4611 407.619 77.4611 407.343C77.4611 407.067 77.2372 406.843 76.9611 406.843V407.843ZM80.9836 406.843C80.7075 406.843 80.4836 407.067 80.4836 407.343C80.4836 407.619 80.7075 407.843 80.9836 407.843V406.843ZM85.0061 407.843C85.2822 407.843 85.5061 407.619 85.5061 407.343C85.5061 407.067 85.2822 406.843 85.0061 406.843V407.843ZM89.0286 406.843C88.7525 406.843 88.5286 407.067 88.5286 407.343C88.5286 407.619 88.7525 407.843 89.0286 407.843V406.843ZM93.0511 407.843C93.3272 407.843 93.5511 407.619 93.5511 407.343C93.5511 407.067 93.3272 406.843 93.0511 406.843V407.843ZM97.0736 406.843C96.7975 406.843 96.5736 407.067 96.5736 407.343C96.5736 407.619 96.7975 407.843 97.0736 407.843V406.843ZM101.096 407.843C101.372 407.843 101.596 407.619 101.596 407.343C101.596 407.067 101.372 406.843 101.096 406.843V407.843ZM105.119 406.843C104.842 406.843 104.619 407.067 104.619 407.343C104.619 407.619 104.842 407.843 105.119 407.843V406.843ZM109.141 407.843C109.417 407.843 109.641 407.619 109.641 407.343C109.641 407.067 109.417 406.843 109.141 406.843V407.843ZM113.164 406.843C112.887 406.843 112.664 407.067 112.664 407.343C112.664 407.619 112.887 407.843 113.164 407.843V406.843ZM117.186 407.843C117.462 407.843 117.686 407.619 117.686 407.343C117.686 407.067 117.462 406.843 117.186 406.843V407.843ZM121.209 406.843C120.932 406.843 120.709 407.067 120.709 407.343C120.709 407.619 120.932 407.843 121.209 407.843V406.843ZM125.231 407.843C125.507 407.843 125.731 407.619 125.731 407.343C125.731 407.067 125.507 406.843 125.231 406.843V407.843ZM129.254 406.843C128.977 406.843 128.754 407.067 128.754 407.343C128.754 407.619 128.977 407.843 129.254 407.843V406.843ZM133.276 407.843C133.552 407.843 133.776 407.619 133.776 407.343C133.776 407.067 133.552 406.843 133.276 406.843V407.843ZM137.299 406.843C137.022 406.843 136.799 407.067 136.799 407.343C136.799 407.619 137.022 407.843 137.299 407.843V406.843ZM141.321 407.843C141.597 407.843 141.821 407.619 141.821 407.343C141.821 407.067 141.597 406.843 141.321 406.843V407.843ZM145.344 406.843C145.067 406.843 144.844 407.067 144.844 407.343C144.844 407.619 145.067 407.843 145.344 407.843V406.843ZM149.366 407.843C149.642 407.843 149.866 407.619 149.866 407.343C149.866 407.067 149.642 406.843 149.366 406.843V407.843ZM153.389 406.843C153.112 406.843 152.889 407.067 152.889 407.343C152.889 407.619 153.112 407.843 153.389 407.843V406.843ZM157.411 407.843C157.687 407.843 157.911 407.619 157.911 407.343C157.911 407.067 157.687 406.843 157.411 406.843V407.843ZM161.434 406.843C161.157 406.843 160.934 407.067 160.934 407.343C160.934 407.619 161.157 407.843 161.434 407.843V406.843ZM165.456 407.843C165.732 407.843 165.956 407.619 165.956 407.343C165.956 407.067 165.732 406.843 165.456 406.843V407.843ZM169.479 406.843C169.202 406.843 168.979 407.067 168.979 407.343C168.979 407.619 169.202 407.843 169.479 407.843V406.843ZM173.501 407.843C173.777 407.843 174.001 407.619 174.001 407.343C174.001 407.067 173.777 406.843 173.501 406.843V407.843ZM177.524 406.843C177.247 406.843 177.024 407.067 177.024 407.343C177.024 407.619 177.247 407.843 177.524 407.843V406.843ZM181.546 407.843C181.822 407.843 182.046 407.619 182.046 407.343C182.046 407.067 181.822 406.843 181.546 406.843V407.843ZM185.569 406.843C185.292 406.843 185.069 407.067 185.069 407.343C185.069 407.619 185.292 407.843 185.569 407.843V406.843ZM189.591 407.843C189.867 407.843 190.091 407.619 190.091 407.343C190.091 407.067 189.867 406.843 189.591 406.843V407.843ZM193.614 406.843C193.337 406.843 193.114 407.067 193.114 407.343C193.114 407.619 193.337 407.843 193.614 407.843V406.843ZM197.636 407.843C197.912 407.843 198.136 407.619 198.136 407.343C198.136 407.067 197.912 406.843 197.636 406.843V407.843ZM201.659 406.843C201.382 406.843 201.159 407.067 201.159 407.343C201.159 407.619 201.382 407.843 201.659 407.843V406.843ZM205.681 407.843C205.957 407.843 206.181 407.619 206.181 407.343C206.181 407.067 205.957 406.843 205.681 406.843V407.843ZM209.704 406.843C209.427 406.843 209.204 407.067 209.204 407.343C209.204 407.619 209.427 407.843 209.704 407.843V406.843ZM213.726 407.843C214.002 407.843 214.226 407.619 214.226 407.343C214.226 407.067 214.002 406.843 213.726 406.843V407.843ZM217.749 406.843C217.472 406.843 217.249 407.067 217.249 407.343C217.249 407.619 217.472 407.843 217.749 407.843V406.843ZM221.771 407.843C222.047 407.843 222.271 407.619 222.271 407.343C222.271 407.067 222.047 406.843 221.771 406.843V407.843ZM225.794 406.843C225.517 406.843 225.294 407.067 225.294 407.343C225.294 407.619 225.517 407.843 225.794 407.843V406.843ZM229.816 407.843C230.092 407.843 230.316 407.619 230.316 407.343C230.316 407.067 230.092 406.843 229.816 406.843V407.843ZM233.839 406.843C233.562 406.843 233.339 407.067 233.339 407.343C233.339 407.619 233.562 407.843 233.839 407.843V406.843ZM237.861 407.843C238.137 407.843 238.361 407.619 238.361 407.343C238.361 407.067 238.137 406.843 237.861 406.843V407.843ZM241.883 406.843C241.607 406.843 241.383 407.067 241.383 407.343C241.383 407.619 241.607 407.843 241.883 407.843V406.843ZM245.906 407.843C246.182 407.843 246.406 407.619 246.406 407.343C246.406 407.067 246.182 406.843 245.906 406.843V407.843ZM249.928 406.843C249.652 406.843 249.428 407.067 249.428 407.343C249.428 407.619 249.652 407.843 249.928 407.843V406.843ZM253.951 407.843C254.227 407.843 254.451 407.619 254.451 407.343C254.451 407.067 254.227 406.843 253.951 406.843V407.843ZM257.973 406.843C257.697 406.843 257.473 407.067 257.473 407.343C257.473 407.619 257.697 407.843 257.973 407.843V406.843ZM261.996 407.843C262.272 407.843 262.496 407.619 262.496 407.343C262.496 407.067 262.272 406.843 261.996 406.843V407.843ZM266.018 406.843C265.742 406.843 265.518 407.067 265.518 407.343C265.518 407.619 265.742 407.843 266.018 407.843V406.843ZM270.041 407.843C270.317 407.843 270.541 407.619 270.541 407.343C270.541 407.067 270.317 406.843 270.041 406.843V407.843ZM274.063 406.843C273.787 406.843 273.563 407.067 273.563 407.343C273.563 407.619 273.787 407.843 274.063 407.843V406.843ZM278.086 407.843C278.362 407.843 278.586 407.619 278.586 407.343C278.586 407.067 278.362 406.843 278.086 406.843V407.843ZM282.108 406.843C281.832 406.843 281.608 407.067 281.608 407.343C281.608 407.619 281.832 407.843 282.108 407.843V406.843ZM286.131 407.843C286.407 407.843 286.631 407.619 286.631 407.343C286.631 407.067 286.407 406.843 286.131 406.843V407.843ZM290.153 406.843C289.877 406.843 289.653 407.067 289.653 407.343C289.653 407.619 289.877 407.843 290.153 407.843V406.843ZM294.176 407.843C294.452 407.843 294.676 407.619 294.676 407.343C294.676 407.067 294.452 406.843 294.176 406.843V407.843ZM298.198 406.843C297.922 406.843 297.698 407.067 297.698 407.343C297.698 407.619 297.922 407.843 298.198 407.843V406.843ZM302.221 407.843C302.497 407.843 302.721 407.619 302.721 407.343C302.721 407.067 302.497 406.843 302.221 406.843V407.843ZM306.243 406.843C305.967 406.843 305.743 407.067 305.743 407.343C305.743 407.619 305.967 407.843 306.243 407.843V406.843ZM310.266 407.843C310.542 407.843 310.766 407.619 310.766 407.343C310.766 407.067 310.542 406.843 310.266 406.843V407.843ZM314.288 406.843C314.012 406.843 313.788 407.067 313.788 407.343C313.788 407.619 314.012 407.843 314.288 407.843V406.843ZM318.311 407.843C318.587 407.843 318.811 407.619 318.811 407.343C318.811 407.067 318.587 406.843 318.311 406.843V407.843ZM322.333 406.843C322.057 406.843 321.833 407.067 321.833 407.343C321.833 407.619 322.057 407.843 322.333 407.843V406.843ZM326.356 407.843C326.632 407.843 326.856 407.619 326.856 407.343C326.856 407.067 326.632 406.843 326.356 406.843V407.843ZM330.378 406.843C330.102 406.843 329.878 407.067 329.878 407.343C329.878 407.619 330.102 407.843 330.378 407.843V406.843ZM334.401 407.843C334.677 407.843 334.901 407.619 334.901 407.343C334.901 407.067 334.677 406.843 334.401 406.843V407.843ZM338.423 406.843C338.147 406.843 337.923 407.067 337.923 407.343C337.923 407.619 338.147 407.843 338.423 407.843V406.843ZM342.446 407.843C342.722 407.843 342.946 407.619 342.946 407.343C342.946 407.067 342.722 406.843 342.446 406.843V407.843ZM346.468 406.843C346.192 406.843 345.968 407.067 345.968 407.343C345.968 407.619 346.192 407.843 346.468 407.843V406.843ZM350.491 407.843C350.767 407.843 350.991 407.619 350.991 407.343C350.991 407.067 350.767 406.843 350.491 406.843V407.843ZM354.513 406.843C354.237 406.843 354.013 407.067 354.013 407.343C354.013 407.619 354.237 407.843 354.513 407.843V406.843ZM358.536 407.843C358.812 407.843 359.036 407.619 359.036 407.343C359.036 407.067 358.812 406.843 358.536 406.843V407.843ZM362.558 406.843C362.282 406.843 362.058 407.067 362.058 407.343C362.058 407.619 362.282 407.843 362.558 407.843V406.843ZM366.581 407.843C366.857 407.843 367.081 407.619 367.081 407.343C367.081 407.067 366.857 406.843 366.581 406.843V407.843ZM370.603 406.843C370.327 406.843 370.103 407.067 370.103 407.343C370.103 407.619 370.327 407.843 370.603 407.843V406.843ZM374.626 407.843C374.902 407.843 375.126 407.619 375.126 407.343C375.126 407.067 374.902 406.843 374.626 406.843V407.843ZM378.648 406.843C378.372 406.843 378.148 407.067 378.148 407.343C378.148 407.619 378.372 407.843 378.648 407.843V406.843ZM382.671 407.843C382.947 407.843 383.171 407.619 383.171 407.343C383.171 407.067 382.947 406.843 382.671 406.843V407.843ZM386.693 406.843C386.417 406.843 386.193 407.067 386.193 407.343C386.193 407.619 386.417 407.843 386.693 407.843V406.843ZM66.9049 407.343V407.843H68.9161V407.343V406.843H66.9049V407.343ZM72.9386 407.343V407.843H76.9611V407.343V406.843H72.9386V407.343ZM80.9836 407.343V407.843H85.0061V407.343V406.843H80.9836V407.343ZM89.0286 407.343V407.843H93.0511V407.343V406.843H89.0286V407.343ZM97.0736 407.343V407.843H101.096V407.343V406.843H97.0736V407.343ZM105.119 407.343V407.843H109.141V407.343V406.843H105.119V407.343ZM113.164 407.343V407.843H117.186V407.343V406.843H113.164V407.343ZM121.209 407.343V407.843H125.231V407.343V406.843H121.209V407.343ZM129.254 407.343V407.843H133.276V407.343V406.843H129.254V407.343ZM137.299 407.343V407.843H141.321V407.343V406.843H137.299V407.343ZM145.344 407.343V407.843H149.366V407.343V406.843H145.344V407.343ZM153.389 407.343V407.843H157.411V407.343V406.843H153.389V407.343ZM161.434 407.343V407.843H165.456V407.343V406.843H161.434V407.343ZM169.479 407.343V407.843H173.501V407.343V406.843H169.479V407.343ZM177.524 407.343V407.843H181.546V407.343V406.843H177.524V407.343ZM185.569 407.343V407.843H189.591V407.343V406.843H185.569V407.343ZM193.614 407.343V407.843H197.636V407.343V406.843H193.614V407.343ZM201.659 407.343V407.843H205.681V407.343V406.843H201.659V407.343ZM209.704 407.343V407.843H213.726V407.343V406.843H209.704V407.343ZM217.749 407.343V407.843H221.771V407.343V406.843H217.749V407.343ZM225.794 407.343V407.843H229.816V407.343V406.843H225.794V407.343ZM233.839 407.343V407.843H237.861V407.343V406.843H233.839V407.343ZM241.883 407.343V407.843H245.906V407.343V406.843H241.883V407.343ZM249.928 407.343V407.843H253.951V407.343V406.843H249.928V407.343ZM257.973 407.343V407.843H261.996V407.343V406.843H257.973V407.343ZM266.018 407.343V407.843H270.041V407.343V406.843H266.018V407.343ZM274.063 407.343V407.843H278.086V407.343V406.843H274.063V407.343ZM282.108 407.343V407.843H286.131V407.343V406.843H282.108V407.343ZM290.153 407.343V407.843H294.176V407.343V406.843H290.153V407.343ZM298.198 407.343V407.843H302.221V407.343V406.843H298.198V407.343ZM306.243 407.343V407.843H310.266V407.343V406.843H306.243V407.343ZM314.288 407.343V407.843H318.311V407.343V406.843H314.288V407.343ZM322.333 407.343V407.843H326.356V407.343V406.843H322.333V407.343ZM330.378 407.343V407.843H334.401V407.343V406.843H330.378V407.343ZM338.423 407.343V407.843H342.446V407.343V406.843H338.423V407.343ZM346.468 407.343V407.843H350.491V407.343V406.843H346.468V407.343ZM354.513 407.343V407.843H358.536V407.343V406.843H354.513V407.343ZM362.558 407.343V407.843H366.581V407.343V406.843H362.558V407.343ZM370.603 407.343V407.843H374.626V407.343V406.843H370.603V407.343ZM378.648 407.343V407.843H382.671V407.343V406.843H378.648V407.343ZM386.693 407.343V407.843H388.705V407.343V406.843H386.693V407.343Z" fill="#FEC413"/>
<path d="M509.009 16.7971C509.009 18.2699 510.203 19.4638 511.676 19.4638C513.149 19.4638 514.343 18.2699 514.343 16.7971C514.343 15.3244 513.149 14.1305 511.676 14.1305C510.203 14.1305 509.009 15.3244 509.009 16.7971ZM830.809 16.7971C830.809 18.2699 832.003 19.4638 833.476 19.4638C834.949 19.4638 836.143 18.2699 836.143 16.7971C836.143 15.3244 834.949 14.1305 833.476 14.1305C832.003 14.1305 830.809 15.3244 830.809 16.7971ZM513.687 17.2971C513.963 17.2971 514.187 17.0733 514.187 16.7971C514.187 16.521 513.963 16.2971 513.687 16.2971V17.2971ZM517.71 16.2971C517.434 16.2971 517.21 16.521 517.21 16.7971C517.21 17.0733 517.434 17.2971 517.71 17.2971V16.2971ZM521.732 17.2971C522.008 17.2971 522.232 17.0733 522.232 16.7971C522.232 16.521 522.008 16.2971 521.732 16.2971V17.2971ZM525.755 16.2971C525.479 16.2971 525.255 16.521 525.255 16.7971C525.255 17.0733 525.479 17.2971 525.755 17.2971V16.2971ZM529.777 17.2971C530.053 17.2971 530.277 17.0733 530.277 16.7971C530.277 16.521 530.053 16.2971 529.777 16.2971V17.2971ZM533.8 16.2971C533.524 16.2971 533.3 16.521 533.3 16.7971C533.3 17.0733 533.524 17.2971 533.8 17.2971V16.2971ZM537.822 17.2971C538.098 17.2971 538.322 17.0733 538.322 16.7971C538.322 16.521 538.098 16.2971 537.822 16.2971V17.2971ZM541.845 16.2971C541.569 16.2971 541.345 16.521 541.345 16.7971C541.345 17.0733 541.569 17.2971 541.845 17.2971V16.2971ZM545.867 17.2971C546.143 17.2971 546.367 17.0733 546.367 16.7971C546.367 16.521 546.143 16.2971 545.867 16.2971V17.2971ZM549.89 16.2971C549.614 16.2971 549.39 16.521 549.39 16.7971C549.39 17.0733 549.614 17.2971 549.89 17.2971V16.2971ZM553.912 17.2971C554.188 17.2971 554.412 17.0733 554.412 16.7971C554.412 16.521 554.188 16.2971 553.912 16.2971V17.2971ZM557.935 16.2971C557.659 16.2971 557.435 16.521 557.435 16.7971C557.435 17.0733 557.659 17.2971 557.935 17.2971V16.2971ZM561.957 17.2971C562.233 17.2971 562.457 17.0733 562.457 16.7971C562.457 16.521 562.233 16.2971 561.957 16.2971V17.2971ZM565.98 16.2971C565.704 16.2971 565.48 16.521 565.48 16.7971C565.48 17.0733 565.704 17.2971 565.98 17.2971V16.2971ZM570.002 17.2971C570.278 17.2971 570.502 17.0733 570.502 16.7971C570.502 16.521 570.278 16.2971 570.002 16.2971V17.2971ZM574.025 16.2971C573.749 16.2971 573.525 16.521 573.525 16.7971C573.525 17.0733 573.749 17.2971 574.025 17.2971V16.2971ZM578.047 17.2971C578.323 17.2971 578.547 17.0733 578.547 16.7971C578.547 16.521 578.323 16.2971 578.047 16.2971V17.2971ZM582.07 16.2971C581.794 16.2971 581.57 16.521 581.57 16.7971C581.57 17.0733 581.794 17.2971 582.07 17.2971V16.2971ZM586.092 17.2971C586.368 17.2971 586.592 17.0733 586.592 16.7971C586.592 16.521 586.368 16.2971 586.092 16.2971V17.2971ZM590.115 16.2971C589.839 16.2971 589.615 16.521 589.615 16.7971C589.615 17.0733 589.839 17.2971 590.115 17.2971V16.2971ZM594.137 17.2971C594.413 17.2971 594.637 17.0733 594.637 16.7971C594.637 16.521 594.413 16.2971 594.137 16.2971V17.2971ZM598.16 16.2971C597.884 16.2971 597.66 16.521 597.66 16.7971C597.66 17.0733 597.884 17.2971 598.16 17.2971V16.2971ZM602.182 17.2971C602.458 17.2971 602.682 17.0733 602.682 16.7971C602.682 16.521 602.458 16.2971 602.182 16.2971V17.2971ZM606.205 16.2971C605.929 16.2971 605.705 16.521 605.705 16.7971C605.705 17.0733 605.929 17.2971 606.205 17.2971V16.2971ZM610.227 17.2971C610.503 17.2971 610.727 17.0733 610.727 16.7971C610.727 16.521 610.503 16.2971 610.227 16.2971V17.2971ZM614.25 16.2971C613.974 16.2971 613.75 16.521 613.75 16.7971C613.75 17.0733 613.974 17.2971 614.25 17.2971V16.2971ZM618.272 17.2971C618.548 17.2971 618.772 17.0733 618.772 16.7971C618.772 16.521 618.548 16.2971 618.272 16.2971V17.2971ZM622.295 16.2971C622.019 16.2971 621.795 16.521 621.795 16.7971C621.795 17.0733 622.019 17.2971 622.295 17.2971V16.2971ZM626.317 17.2971C626.593 17.2971 626.817 17.0733 626.817 16.7971C626.817 16.521 626.593 16.2971 626.317 16.2971V17.2971ZM630.34 16.2971C630.064 16.2971 629.84 16.521 629.84 16.7971C629.84 17.0733 630.064 17.2971 630.34 17.2971V16.2971ZM634.362 17.2971C634.638 17.2971 634.862 17.0733 634.862 16.7971C634.862 16.521 634.638 16.2971 634.362 16.2971V17.2971ZM638.385 16.2971C638.109 16.2971 637.885 16.521 637.885 16.7971C637.885 17.0733 638.109 17.2971 638.385 17.2971V16.2971ZM642.407 17.2971C642.683 17.2971 642.907 17.0733 642.907 16.7971C642.907 16.521 642.683 16.2971 642.407 16.2971V17.2971ZM646.43 16.2971C646.154 16.2971 645.93 16.521 645.93 16.7971C645.93 17.0733 646.154 17.2971 646.43 17.2971V16.2971ZM650.452 17.2971C650.728 17.2971 650.952 17.0733 650.952 16.7971C650.952 16.521 650.728 16.2971 650.452 16.2971V17.2971ZM654.475 16.2971C654.199 16.2971 653.975 16.521 653.975 16.7971C653.975 17.0733 654.199 17.2971 654.475 17.2971V16.2971ZM658.497 17.2971C658.773 17.2971 658.997 17.0733 658.997 16.7971C658.997 16.521 658.773 16.2971 658.497 16.2971V17.2971ZM662.52 16.2971C662.244 16.2971 662.02 16.521 662.02 16.7971C662.02 17.0733 662.244 17.2971 662.52 17.2971V16.2971ZM666.542 17.2971C666.818 17.2971 667.042 17.0733 667.042 16.7971C667.042 16.521 666.818 16.2971 666.542 16.2971V17.2971ZM670.565 16.2971C670.289 16.2971 670.065 16.521 670.065 16.7971C670.065 17.0733 670.289 17.2971 670.565 17.2971V16.2971ZM674.587 17.2971C674.863 17.2971 675.087 17.0733 675.087 16.7971C675.087 16.521 674.863 16.2971 674.587 16.2971V17.2971ZM678.61 16.2971C678.334 16.2971 678.11 16.521 678.11 16.7971C678.11 17.0733 678.334 17.2971 678.61 17.2971V16.2971ZM682.632 17.2971C682.908 17.2971 683.132 17.0733 683.132 16.7971C683.132 16.521 682.908 16.2971 682.632 16.2971V17.2971ZM686.655 16.2971C686.379 16.2971 686.155 16.521 686.155 16.7971C686.155 17.0733 686.379 17.2971 686.655 17.2971V16.2971ZM690.677 17.2971C690.953 17.2971 691.177 17.0733 691.177 16.7971C691.177 16.521 690.953 16.2971 690.677 16.2971V17.2971ZM694.7 16.2971C694.424 16.2971 694.2 16.521 694.2 16.7971C694.2 17.0733 694.424 17.2971 694.7 17.2971V16.2971ZM698.722 17.2971C698.998 17.2971 699.222 17.0733 699.222 16.7971C699.222 16.521 698.998 16.2971 698.722 16.2971V17.2971ZM702.745 16.2971C702.469 16.2971 702.245 16.521 702.245 16.7971C702.245 17.0733 702.469 17.2971 702.745 17.2971V16.2971ZM706.767 17.2971C707.043 17.2971 707.267 17.0733 707.267 16.7971C707.267 16.521 707.043 16.2971 706.767 16.2971V17.2971ZM710.79 16.2971C710.514 16.2971 710.29 16.521 710.29 16.7971C710.29 17.0733 710.514 17.2971 710.79 17.2971V16.2971ZM714.812 17.2971C715.088 17.2971 715.312 17.0733 715.312 16.7971C715.312 16.521 715.088 16.2971 714.812 16.2971V17.2971ZM718.835 16.2971C718.559 16.2971 718.335 16.521 718.335 16.7971C718.335 17.0733 718.559 17.2971 718.835 17.2971V16.2971ZM722.857 17.2971C723.133 17.2971 723.357 17.0733 723.357 16.7971C723.357 16.521 723.133 16.2971 722.857 16.2971V17.2971ZM726.88 16.2971C726.603 16.2971 726.38 16.521 726.38 16.7971C726.38 17.0733 726.603 17.2971 726.88 17.2971V16.2971ZM730.902 17.2971C731.178 17.2971 731.402 17.0733 731.402 16.7971C731.402 16.521 731.178 16.2971 730.902 16.2971V17.2971ZM734.925 16.2971C734.648 16.2971 734.425 16.521 734.425 16.7971C734.425 17.0733 734.648 17.2971 734.925 17.2971V16.2971ZM738.947 17.2971C739.223 17.2971 739.447 17.0733 739.447 16.7971C739.447 16.521 739.223 16.2971 738.947 16.2971V17.2971ZM742.97 16.2971C742.693 16.2971 742.47 16.521 742.47 16.7971C742.47 17.0733 742.693 17.2971 742.97 17.2971V16.2971ZM746.992 17.2971C747.268 17.2971 747.492 17.0733 747.492 16.7971C747.492 16.521 747.268 16.2971 746.992 16.2971V17.2971ZM751.015 16.2971C750.738 16.2971 750.515 16.521 750.515 16.7971C750.515 17.0733 750.738 17.2971 751.015 17.2971V16.2971ZM755.037 17.2971C755.313 17.2971 755.537 17.0733 755.537 16.7971C755.537 16.521 755.313 16.2971 755.037 16.2971V17.2971ZM759.06 16.2971C758.783 16.2971 758.56 16.521 758.56 16.7971C758.56 17.0733 758.783 17.2971 759.06 17.2971V16.2971ZM763.082 17.2971C763.358 17.2971 763.582 17.0733 763.582 16.7971C763.582 16.521 763.358 16.2971 763.082 16.2971V17.2971ZM767.105 16.2971C766.828 16.2971 766.605 16.521 766.605 16.7971C766.605 17.0733 766.828 17.2971 767.105 17.2971V16.2971ZM771.127 17.2971C771.403 17.2971 771.627 17.0733 771.627 16.7971C771.627 16.521 771.403 16.2971 771.127 16.2971V17.2971ZM775.15 16.2971C774.873 16.2971 774.65 16.521 774.65 16.7971C774.65 17.0733 774.873 17.2971 775.15 17.2971V16.2971ZM779.172 17.2971C779.448 17.2971 779.672 17.0733 779.672 16.7971C779.672 16.521 779.448 16.2971 779.172 16.2971V17.2971ZM783.195 16.2971C782.918 16.2971 782.695 16.521 782.695 16.7971C782.695 17.0733 782.918 17.2971 783.195 17.2971V16.2971ZM787.217 17.2971C787.493 17.2971 787.717 17.0733 787.717 16.7971C787.717 16.521 787.493 16.2971 787.217 16.2971V17.2971ZM791.24 16.2971C790.963 16.2971 790.74 16.521 790.74 16.7971C790.74 17.0733 790.963 17.2971 791.24 17.2971V16.2971ZM795.262 17.2971C795.538 17.2971 795.762 17.0733 795.762 16.7971C795.762 16.521 795.538 16.2971 795.262 16.2971V17.2971ZM799.284 16.2971C799.008 16.2971 798.784 16.521 798.784 16.7971C798.784 17.0733 799.008 17.2971 799.284 17.2971V16.2971ZM803.307 17.2971C803.583 17.2971 803.807 17.0733 803.807 16.7971C803.807 16.521 803.583 16.2971 803.307 16.2971V17.2971ZM807.329 16.2971C807.053 16.2971 806.829 16.521 806.829 16.7971C806.829 17.0733 807.053 17.2971 807.329 17.2971V16.2971ZM811.352 17.2971C811.628 17.2971 811.852 17.0733 811.852 16.7971C811.852 16.521 811.628 16.2971 811.352 16.2971V17.2971ZM815.374 16.2971C815.098 16.2971 814.874 16.521 814.874 16.7971C814.874 17.0733 815.098 17.2971 815.374 17.2971V16.2971ZM819.397 17.2971C819.673 17.2971 819.897 17.0733 819.897 16.7971C819.897 16.521 819.673 16.2971 819.397 16.2971V17.2971ZM823.419 16.2971C823.143 16.2971 822.919 16.521 822.919 16.7971C822.919 17.0733 823.143 17.2971 823.419 17.2971V16.2971ZM827.442 17.2971C827.718 17.2971 827.942 17.0733 827.942 16.7971C827.942 16.521 827.718 16.2971 827.442 16.2971V17.2971ZM831.464 16.2971C831.188 16.2971 830.964 16.521 830.964 16.7971C830.964 17.0733 831.188 17.2971 831.464 17.2971V16.2971ZM511.676 16.7971V17.2971H513.687V16.7971V16.2971H511.676V16.7971ZM517.71 16.7971V17.2971H521.732V16.7971V16.2971H517.71V16.7971ZM525.755 16.7971V17.2971H529.777V16.7971V16.2971H525.755V16.7971ZM533.8 16.7971V17.2971H537.822V16.7971V16.2971H533.8V16.7971ZM541.845 16.7971V17.2971H545.867V16.7971V16.2971H541.845V16.7971ZM549.89 16.7971V17.2971H553.912V16.7971V16.2971H549.89V16.7971ZM557.935 16.7971V17.2971H561.957V16.7971V16.2971H557.935V16.7971ZM565.98 16.7971V17.2971H570.002V16.7971V16.2971H565.98V16.7971ZM574.025 16.7971V17.2971H578.047V16.7971V16.2971H574.025V16.7971ZM582.07 16.7971V17.2971H586.092V16.7971V16.2971H582.07V16.7971ZM590.115 16.7971V17.2971H594.137V16.7971V16.2971H590.115V16.7971ZM598.16 16.7971V17.2971H602.182V16.7971V16.2971H598.16V16.7971ZM606.205 16.7971V17.2971H610.227V16.7971V16.2971H606.205V16.7971ZM614.25 16.7971V17.2971H618.272V16.7971V16.2971H614.25V16.7971ZM622.295 16.7971V17.2971H626.317V16.7971V16.2971H622.295V16.7971ZM630.34 16.7971V17.2971H634.362V16.7971V16.2971H630.34V16.7971ZM638.385 16.7971V17.2971H642.407V16.7971V16.2971H638.385V16.7971ZM646.43 16.7971V17.2971H650.452V16.7971V16.2971H646.43V16.7971ZM654.475 16.7971V17.2971H658.497V16.7971V16.2971H654.475V16.7971ZM662.52 16.7971V17.2971H666.542V16.7971V16.2971H662.52V16.7971ZM670.565 16.7971V17.2971H674.587V16.7971V16.2971H670.565V16.7971ZM678.61 16.7971V17.2971H682.632V16.7971V16.2971H678.61V16.7971ZM686.655 16.7971V17.2971H690.677V16.7971V16.2971H686.655V16.7971ZM694.7 16.7971V17.2971H698.722V16.7971V16.2971H694.7V16.7971ZM702.745 16.7971V17.2971H706.767V16.7971V16.2971H702.745V16.7971ZM710.79 16.7971V17.2971H714.812V16.7971V16.2971H710.79V16.7971ZM718.835 16.7971V17.2971H722.857V16.7971V16.2971H718.835V16.7971ZM726.88 16.7971V17.2971H730.902V16.7971V16.2971H726.88V16.7971ZM734.925 16.7971V17.2971H738.947V16.7971V16.2971H734.925V16.7971ZM742.97 16.7971V17.2971H746.992V16.7971V16.2971H742.97V16.7971ZM751.015 16.7971V17.2971H755.037V16.7971V16.2971H751.015V16.7971ZM759.06 16.7971V17.2971H763.082V16.7971V16.2971H759.06V16.7971ZM767.105 16.7971V17.2971H771.127V16.7971V16.2971H767.105V16.7971ZM775.15 16.7971V17.2971H779.172V16.7971V16.2971H775.15V16.7971ZM783.195 16.7971V17.2971H787.217V16.7971V16.2971H783.195V16.7971ZM791.24 16.7971V17.2971H795.262V16.7971V16.2971H791.24V16.7971ZM799.284 16.7971V17.2971H803.307V16.7971V16.2971H799.284V16.7971ZM807.329 16.7971V17.2971H811.352V16.7971V16.2971H807.329V16.7971ZM815.374 16.7971V17.2971H819.397V16.7971V16.2971H815.374V16.7971ZM823.419 16.7971V17.2971H827.442V16.7971V16.2971H823.419V16.7971ZM831.464 16.7971V17.2971H833.476V16.7971V16.2971H831.464V16.7971Z" fill="#FEC413"/>
<path d="M509.009 407.343C509.009 408.816 510.203 410.01 511.676 410.01C513.149 410.01 514.343 408.816 514.343 407.343C514.343 405.87 513.149 404.676 511.676 404.676C510.203 404.676 509.009 405.87 509.009 407.343ZM830.809 407.343C830.809 408.816 832.003 410.01 833.476 410.01C834.949 410.01 836.143 408.816 836.143 407.343C836.143 405.87 834.949 404.676 833.476 404.676C832.003 404.676 830.809 405.87 830.809 407.343ZM513.687 407.843C513.963 407.843 514.187 407.619 514.187 407.343C514.187 407.067 513.963 406.843 513.687 406.843V407.843ZM517.71 406.843C517.434 406.843 517.21 407.067 517.21 407.343C517.21 407.619 517.434 407.843 517.71 407.843V406.843ZM521.732 407.843C522.008 407.843 522.232 407.619 522.232 407.343C522.232 407.067 522.008 406.843 521.732 406.843V407.843ZM525.755 406.843C525.479 406.843 525.255 407.067 525.255 407.343C525.255 407.619 525.479 407.843 525.755 407.843V406.843ZM529.777 407.843C530.053 407.843 530.277 407.619 530.277 407.343C530.277 407.067 530.053 406.843 529.777 406.843V407.843ZM533.8 406.843C533.524 406.843 533.3 407.067 533.3 407.343C533.3 407.619 533.524 407.843 533.8 407.843V406.843ZM537.822 407.843C538.098 407.843 538.322 407.619 538.322 407.343C538.322 407.067 538.098 406.843 537.822 406.843V407.843ZM541.845 406.843C541.569 406.843 541.345 407.067 541.345 407.343C541.345 407.619 541.569 407.843 541.845 407.843V406.843ZM545.867 407.843C546.143 407.843 546.367 407.619 546.367 407.343C546.367 407.067 546.143 406.843 545.867 406.843V407.843ZM549.89 406.843C549.614 406.843 549.39 407.067 549.39 407.343C549.39 407.619 549.614 407.843 549.89 407.843V406.843ZM553.912 407.843C554.188 407.843 554.412 407.619 554.412 407.343C554.412 407.067 554.188 406.843 553.912 406.843V407.843ZM557.935 406.843C557.659 406.843 557.435 407.067 557.435 407.343C557.435 407.619 557.659 407.843 557.935 407.843V406.843ZM561.957 407.843C562.233 407.843 562.457 407.619 562.457 407.343C562.457 407.067 562.233 406.843 561.957 406.843V407.843ZM565.98 406.843C565.704 406.843 565.48 407.067 565.48 407.343C565.48 407.619 565.704 407.843 565.98 407.843V406.843ZM570.002 407.843C570.278 407.843 570.502 407.619 570.502 407.343C570.502 407.067 570.278 406.843 570.002 406.843V407.843ZM574.025 406.843C573.749 406.843 573.525 407.067 573.525 407.343C573.525 407.619 573.749 407.843 574.025 407.843V406.843ZM578.047 407.843C578.323 407.843 578.547 407.619 578.547 407.343C578.547 407.067 578.323 406.843 578.047 406.843V407.843ZM582.07 406.843C581.794 406.843 581.57 407.067 581.57 407.343C581.57 407.619 581.794 407.843 582.07 407.843V406.843ZM586.092 407.843C586.368 407.843 586.592 407.619 586.592 407.343C586.592 407.067 586.368 406.843 586.092 406.843V407.843ZM590.115 406.843C589.839 406.843 589.615 407.067 589.615 407.343C589.615 407.619 589.839 407.843 590.115 407.843V406.843ZM594.137 407.843C594.413 407.843 594.637 407.619 594.637 407.343C594.637 407.067 594.413 406.843 594.137 406.843V407.843ZM598.16 406.843C597.884 406.843 597.66 407.067 597.66 407.343C597.66 407.619 597.884 407.843 598.16 407.843V406.843ZM602.182 407.843C602.458 407.843 602.682 407.619 602.682 407.343C602.682 407.067 602.458 406.843 602.182 406.843V407.843ZM606.205 406.843C605.929 406.843 605.705 407.067 605.705 407.343C605.705 407.619 605.929 407.843 606.205 407.843V406.843ZM610.227 407.843C610.503 407.843 610.727 407.619 610.727 407.343C610.727 407.067 610.503 406.843 610.227 406.843V407.843ZM614.25 406.843C613.974 406.843 613.75 407.067 613.75 407.343C613.75 407.619 613.974 407.843 614.25 407.843V406.843ZM618.272 407.843C618.548 407.843 618.772 407.619 618.772 407.343C618.772 407.067 618.548 406.843 618.272 406.843V407.843ZM622.295 406.843C622.019 406.843 621.795 407.067 621.795 407.343C621.795 407.619 622.019 407.843 622.295 407.843V406.843ZM626.317 407.843C626.593 407.843 626.817 407.619 626.817 407.343C626.817 407.067 626.593 406.843 626.317 406.843V407.843ZM630.34 406.843C630.064 406.843 629.84 407.067 629.84 407.343C629.84 407.619 630.064 407.843 630.34 407.843V406.843ZM634.362 407.843C634.638 407.843 634.862 407.619 634.862 407.343C634.862 407.067 634.638 406.843 634.362 406.843V407.843ZM638.385 406.843C638.109 406.843 637.885 407.067 637.885 407.343C637.885 407.619 638.109 407.843 638.385 407.843V406.843ZM642.407 407.843C642.683 407.843 642.907 407.619 642.907 407.343C642.907 407.067 642.683 406.843 642.407 406.843V407.843ZM646.43 406.843C646.154 406.843 645.93 407.067 645.93 407.343C645.93 407.619 646.154 407.843 646.43 407.843V406.843ZM650.452 407.843C650.728 407.843 650.952 407.619 650.952 407.343C650.952 407.067 650.728 406.843 650.452 406.843V407.843ZM654.475 406.843C654.199 406.843 653.975 407.067 653.975 407.343C653.975 407.619 654.199 407.843 654.475 407.843V406.843ZM658.497 407.843C658.773 407.843 658.997 407.619 658.997 407.343C658.997 407.067 658.773 406.843 658.497 406.843V407.843ZM662.52 406.843C662.244 406.843 662.02 407.067 662.02 407.343C662.02 407.619 662.244 407.843 662.52 407.843V406.843ZM666.542 407.843C666.818 407.843 667.042 407.619 667.042 407.343C667.042 407.067 666.818 406.843 666.542 406.843V407.843ZM670.565 406.843C670.289 406.843 670.065 407.067 670.065 407.343C670.065 407.619 670.289 407.843 670.565 407.843V406.843ZM674.587 407.843C674.863 407.843 675.087 407.619 675.087 407.343C675.087 407.067 674.863 406.843 674.587 406.843V407.843ZM678.61 406.843C678.334 406.843 678.11 407.067 678.11 407.343C678.11 407.619 678.334 407.843 678.61 407.843V406.843ZM682.632 407.843C682.908 407.843 683.132 407.619 683.132 407.343C683.132 407.067 682.908 406.843 682.632 406.843V407.843ZM686.655 406.843C686.379 406.843 686.155 407.067 686.155 407.343C686.155 407.619 686.379 407.843 686.655 407.843V406.843ZM690.677 407.843C690.953 407.843 691.177 407.619 691.177 407.343C691.177 407.067 690.953 406.843 690.677 406.843V407.843ZM694.7 406.843C694.424 406.843 694.2 407.067 694.2 407.343C694.2 407.619 694.424 407.843 694.7 407.843V406.843ZM698.722 407.843C698.998 407.843 699.222 407.619 699.222 407.343C699.222 407.067 698.998 406.843 698.722 406.843V407.843ZM702.745 406.843C702.469 406.843 702.245 407.067 702.245 407.343C702.245 407.619 702.469 407.843 702.745 407.843V406.843ZM706.767 407.843C707.043 407.843 707.267 407.619 707.267 407.343C707.267 407.067 707.043 406.843 706.767 406.843V407.843ZM710.79 406.843C710.514 406.843 710.29 407.067 710.29 407.343C710.29 407.619 710.514 407.843 710.79 407.843V406.843ZM714.812 407.843C715.088 407.843 715.312 407.619 715.312 407.343C715.312 407.067 715.088 406.843 714.812 406.843V407.843ZM718.835 406.843C718.559 406.843 718.335 407.067 718.335 407.343C718.335 407.619 718.559 407.843 718.835 407.843V406.843ZM722.857 407.843C723.133 407.843 723.357 407.619 723.357 407.343C723.357 407.067 723.133 406.843 722.857 406.843V407.843ZM726.88 406.843C726.603 406.843 726.38 407.067 726.38 407.343C726.38 407.619 726.603 407.843 726.88 407.843V406.843ZM730.902 407.843C731.178 407.843 731.402 407.619 731.402 407.343C731.402 407.067 731.178 406.843 730.902 406.843V407.843ZM734.925 406.843C734.648 406.843 734.425 407.067 734.425 407.343C734.425 407.619 734.648 407.843 734.925 407.843V406.843ZM738.947 407.843C739.223 407.843 739.447 407.619 739.447 407.343C739.447 407.067 739.223 406.843 738.947 406.843V407.843ZM742.97 406.843C742.693 406.843 742.47 407.067 742.47 407.343C742.47 407.619 742.693 407.843 742.97 407.843V406.843ZM746.992 407.843C747.268 407.843 747.492 407.619 747.492 407.343C747.492 407.067 747.268 406.843 746.992 406.843V407.843ZM751.015 406.843C750.738 406.843 750.515 407.067 750.515 407.343C750.515 407.619 750.738 407.843 751.015 407.843V406.843ZM755.037 407.843C755.313 407.843 755.537 407.619 755.537 407.343C755.537 407.067 755.313 406.843 755.037 406.843V407.843ZM759.06 406.843C758.783 406.843 758.56 407.067 758.56 407.343C758.56 407.619 758.783 407.843 759.06 407.843V406.843ZM763.082 407.843C763.358 407.843 763.582 407.619 763.582 407.343C763.582 407.067 763.358 406.843 763.082 406.843V407.843ZM767.105 406.843C766.828 406.843 766.605 407.067 766.605 407.343C766.605 407.619 766.828 407.843 767.105 407.843V406.843ZM771.127 407.843C771.403 407.843 771.627 407.619 771.627 407.343C771.627 407.067 771.403 406.843 771.127 406.843V407.843ZM775.15 406.843C774.873 406.843 774.65 407.067 774.65 407.343C774.65 407.619 774.873 407.843 775.15 407.843V406.843ZM779.172 407.843C779.448 407.843 779.672 407.619 779.672 407.343C779.672 407.067 779.448 406.843 779.172 406.843V407.843ZM783.195 406.843C782.918 406.843 782.695 407.067 782.695 407.343C782.695 407.619 782.918 407.843 783.195 407.843V406.843ZM787.217 407.843C787.493 407.843 787.717 407.619 787.717 407.343C787.717 407.067 787.493 406.843 787.217 406.843V407.843ZM791.24 406.843C790.963 406.843 790.74 407.067 790.74 407.343C790.74 407.619 790.963 407.843 791.24 407.843V406.843ZM795.262 407.843C795.538 407.843 795.762 407.619 795.762 407.343C795.762 407.067 795.538 406.843 795.262 406.843V407.843ZM799.284 406.843C799.008 406.843 798.784 407.067 798.784 407.343C798.784 407.619 799.008 407.843 799.284 407.843V406.843ZM803.307 407.843C803.583 407.843 803.807 407.619 803.807 407.343C803.807 407.067 803.583 406.843 803.307 406.843V407.843ZM807.329 406.843C807.053 406.843 806.829 407.067 806.829 407.343C806.829 407.619 807.053 407.843 807.329 407.843V406.843ZM811.352 407.843C811.628 407.843 811.852 407.619 811.852 407.343C811.852 407.067 811.628 406.843 811.352 406.843V407.843ZM815.374 406.843C815.098 406.843 814.874 407.067 814.874 407.343C814.874 407.619 815.098 407.843 815.374 407.843V406.843ZM819.397 407.843C819.673 407.843 819.897 407.619 819.897 407.343C819.897 407.067 819.673 406.843 819.397 406.843V407.843ZM823.419 406.843C823.143 406.843 822.919 407.067 822.919 407.343C822.919 407.619 823.143 407.843 823.419 407.843V406.843ZM827.442 407.843C827.718 407.843 827.942 407.619 827.942 407.343C827.942 407.067 827.718 406.843 827.442 406.843V407.843ZM831.464 406.843C831.188 406.843 830.964 407.067 830.964 407.343C830.964 407.619 831.188 407.843 831.464 407.843V406.843ZM511.676 407.343V407.843H513.687V407.343V406.843H511.676V407.343ZM517.71 407.343V407.843H521.732V407.343V406.843H517.71V407.343ZM525.755 407.343V407.843H529.777V407.343V406.843H525.755V407.343ZM533.8 407.343V407.843H537.822V407.343V406.843H533.8V407.343ZM541.845 407.343V407.843H545.867V407.343V406.843H541.845V407.343ZM549.89 407.343V407.843H553.912V407.343V406.843H549.89V407.343ZM557.935 407.343V407.843H561.957V407.343V406.843H557.935V407.343ZM565.98 407.343V407.843H570.002V407.343V406.843H565.98V407.343ZM574.025 407.343V407.843H578.047V407.343V406.843H574.025V407.343ZM582.07 407.343V407.843H586.092V407.343V406.843H582.07V407.343ZM590.115 407.343V407.843H594.137V407.343V406.843H590.115V407.343ZM598.16 407.343V407.843H602.182V407.343V406.843H598.16V407.343ZM606.205 407.343V407.843H610.227V407.343V406.843H606.205V407.343ZM614.25 407.343V407.843H618.272V407.343V406.843H614.25V407.343ZM622.295 407.343V407.843H626.317V407.343V406.843H622.295V407.343ZM630.34 407.343V407.843H634.362V407.343V406.843H630.34V407.343ZM638.385 407.343V407.843H642.407V407.343V406.843H638.385V407.343ZM646.43 407.343V407.843H650.452V407.343V406.843H646.43V407.343ZM654.475 407.343V407.843H658.497V407.343V406.843H654.475V407.343ZM662.52 407.343V407.843H666.542V407.343V406.843H662.52V407.343ZM670.565 407.343V407.843H674.587V407.343V406.843H670.565V407.343ZM678.61 407.343V407.843H682.632V407.343V406.843H678.61V407.343ZM686.655 407.343V407.843H690.677V407.343V406.843H686.655V407.343ZM694.7 407.343V407.843H698.722V407.343V406.843H694.7V407.343ZM702.745 407.343V407.843H706.767V407.343V406.843H702.745V407.343ZM710.79 407.343V407.843H714.812V407.343V406.843H710.79V407.343ZM718.835 407.343V407.843H722.857V407.343V406.843H718.835V407.343ZM726.88 407.343V407.843H730.902V407.343V406.843H726.88V407.343ZM734.925 407.343V407.843H738.947V407.343V406.843H734.925V407.343ZM742.97 407.343V407.843H746.992V407.343V406.843H742.97V407.343ZM751.015 407.343V407.843H755.037V407.343V406.843H751.015V407.343ZM759.06 407.343V407.843H763.082V407.343V406.843H759.06V407.343ZM767.105 407.343V407.843H771.127V407.343V406.843H767.105V407.343ZM775.15 407.343V407.843H779.172V407.343V406.843H775.15V407.343ZM783.195 407.343V407.843H787.217V407.343V406.843H783.195V407.343ZM791.24 407.343V407.843H795.262V407.343V406.843H791.24V407.343ZM799.284 407.343V407.843H803.307V407.343V406.843H799.284V407.343ZM807.329 407.343V407.843H811.352V407.343V406.843H807.329V407.343ZM815.374 407.343V407.843H819.397V407.343V406.843H815.374V407.343ZM823.419 407.343V407.843H827.442V407.343V406.843H823.419V407.343ZM831.464 407.343V407.843H833.476V407.343V406.843H831.464V407.343Z" fill="#FEC413"/>
<path d="M881.493 361.992C882.966 361.992 884.16 360.798 884.16 359.325C884.16 357.853 882.966 356.659 881.493 356.659C880.021 356.659 878.827 357.853 878.827 359.325C878.827 360.798 880.021 361.992 881.493 361.992ZM881.493 66.6815C882.966 66.6815 884.16 65.4876 884.16 64.0148C884.16 62.5421 882.966 61.3482 881.493 61.3482C880.021 61.3482 878.827 62.5421 878.827 64.0148C878.827 65.4876 880.021 66.6815 881.493 66.6815ZM881.993 357.33C881.993 357.054 881.769 356.83 881.493 356.83C881.217 356.83 880.993 357.054 880.993 357.33L881.993 357.33ZM880.993 353.339C880.993 353.615 881.217 353.839 881.493 353.839C881.769 353.839 881.993 353.615 881.993 353.339L880.993 353.339ZM881.993 349.349C881.993 349.072 881.769 348.849 881.493 348.849C881.217 348.849 880.993 349.072 880.993 349.349L881.993 349.349ZM880.993 345.358C880.993 345.634 881.217 345.858 881.493 345.858C881.769 345.858 881.993 345.634 881.993 345.358L880.993 345.358ZM881.993 341.367C881.993 341.091 881.769 340.867 881.493 340.867C881.217 340.867 880.993 341.091 880.993 341.367L881.993 341.367ZM880.993 337.377C880.993 337.653 881.217 337.877 881.493 337.877C881.769 337.877 881.993 337.653 881.993 337.377L880.993 337.377ZM881.993 333.386C881.993 333.11 881.769 332.886 881.493 332.886C881.217 332.886 880.993 333.11 880.993 333.386L881.993 333.386ZM880.993 329.395C880.993 329.671 881.217 329.895 881.493 329.895C881.769 329.895 881.993 329.671 881.993 329.395L880.993 329.395ZM881.993 325.405C881.993 325.128 881.769 324.905 881.493 324.905C881.217 324.905 880.993 325.128 880.993 325.405L881.993 325.405ZM880.993 321.414C880.993 321.69 881.217 321.914 881.493 321.914C881.769 321.914 881.993 321.69 881.993 321.414L880.993 321.414ZM881.993 317.423C881.993 317.147 881.769 316.923 881.493 316.923C881.217 316.923 880.993 317.147 880.993 317.423L881.993 317.423ZM880.993 313.432C880.993 313.709 881.217 313.932 881.493 313.932C881.769 313.932 881.993 313.709 881.993 313.432L880.993 313.432ZM881.993 309.442C881.993 309.166 881.769 308.942 881.493 308.942C881.217 308.942 880.993 309.166 880.993 309.442L881.993 309.442ZM880.993 305.451C880.993 305.727 881.217 305.951 881.493 305.951C881.769 305.951 881.993 305.727 881.993 305.451L880.993 305.451ZM881.993 301.46C881.993 301.184 881.769 300.96 881.493 300.96C881.217 300.96 880.993 301.184 880.993 301.46L881.993 301.46ZM880.993 297.47C880.993 297.746 881.217 297.97 881.493 297.97C881.769 297.97 881.993 297.746 881.993 297.47L880.993 297.47ZM881.993 293.479C881.993 293.203 881.769 292.979 881.493 292.979C881.217 292.979 880.993 293.203 880.993 293.479L881.993 293.479ZM880.993 289.488C880.993 289.765 881.217 289.988 881.493 289.988C881.769 289.988 881.993 289.765 881.993 289.488L880.993 289.488ZM881.993 285.498C881.993 285.222 881.769 284.998 881.493 284.998C881.217 284.998 880.993 285.222 880.993 285.498L881.993 285.498ZM880.993 281.507C880.993 281.783 881.217 282.007 881.493 282.007C881.769 282.007 881.993 281.783 881.993 281.507L880.993 281.507ZM881.993 277.516C881.993 277.24 881.769 277.016 881.493 277.016C881.217 277.016 880.993 277.24 880.993 277.516L881.993 277.516ZM880.993 273.526C880.993 273.802 881.217 274.026 881.493 274.026C881.769 274.026 881.993 273.802 881.993 273.526L880.993 273.526ZM881.993 269.535C881.993 269.259 881.769 269.035 881.493 269.035C881.217 269.035 880.993 269.259 880.993 269.535L881.993 269.535ZM880.993 265.544C880.993 265.82 881.217 266.044 881.493 266.044C881.769 266.044 881.993 265.82 881.993 265.544L880.993 265.544ZM881.993 261.554C881.993 261.277 881.769 261.054 881.493 261.054C881.217 261.054 880.993 261.277 880.993 261.554L881.993 261.554ZM880.993 257.563C880.993 257.839 881.217 258.063 881.493 258.063C881.769 258.063 881.993 257.839 881.993 257.563L880.993 257.563ZM881.993 253.572C881.993 253.296 881.769 253.072 881.493 253.072C881.217 253.072 880.993 253.296 880.993 253.572L881.993 253.572ZM880.993 249.582C880.993 249.858 881.217 250.082 881.493 250.082C881.769 250.082 881.993 249.858 881.993 249.582L880.993 249.582ZM881.993 245.591C881.993 245.315 881.769 245.091 881.493 245.091C881.217 245.091 880.993 245.315 880.993 245.591L881.993 245.591ZM880.993 241.6C880.993 241.876 881.217 242.1 881.493 242.1C881.769 242.1 881.993 241.876 881.993 241.6L880.993 241.6ZM881.993 237.609C881.993 237.333 881.769 237.109 881.493 237.109C881.217 237.109 880.993 237.333 880.993 237.609L881.993 237.609ZM880.993 233.619C880.993 233.895 881.217 234.119 881.493 234.119C881.769 234.119 881.993 233.895 881.993 233.619L880.993 233.619ZM881.993 229.628C881.993 229.352 881.769 229.128 881.493 229.128C881.217 229.128 880.993 229.352 880.993 229.628L881.993 229.628ZM880.993 225.637C880.993 225.914 881.217 226.137 881.493 226.137C881.769 226.137 881.993 225.914 881.993 225.637L880.993 225.637ZM881.993 221.647C881.993 221.371 881.769 221.147 881.493 221.147C881.217 221.147 880.993 221.371 880.993 221.647L881.993 221.647ZM880.993 217.656C880.993 217.932 881.217 218.156 881.493 218.156C881.769 218.156 881.993 217.932 881.993 217.656L880.993 217.656ZM881.993 213.665C881.993 213.389 881.769 213.165 881.493 213.165C881.217 213.165 880.993 213.389 880.993 213.665L881.993 213.665ZM880.993 209.675C880.993 209.951 881.217 210.175 881.493 210.175C881.769 210.175 881.993 209.951 881.993 209.675L880.993 209.675ZM881.993 205.684C881.993 205.408 881.769 205.184 881.493 205.184C881.217 205.184 880.993 205.408 880.993 205.684L881.993 205.684ZM880.993 201.693C880.993 201.97 881.217 202.193 881.493 202.193C881.769 202.193 881.993 201.97 881.993 201.693L880.993 201.693ZM881.993 197.703C881.993 197.427 881.769 197.203 881.493 197.203C881.217 197.203 880.993 197.427 880.993 197.703L881.993 197.703ZM880.993 193.712C880.993 193.988 881.217 194.212 881.493 194.212C881.769 194.212 881.993 193.988 881.993 193.712L880.993 193.712ZM881.993 189.721C881.993 189.445 881.769 189.221 881.493 189.221C881.217 189.221 880.993 189.445 880.993 189.721L881.993 189.721ZM880.993 185.731C880.993 186.007 881.217 186.231 881.493 186.231C881.769 186.231 881.993 186.007 881.993 185.731L880.993 185.731ZM881.993 181.74C881.993 181.464 881.769 181.24 881.493 181.24C881.217 181.24 880.993 181.464 880.993 181.74L881.993 181.74ZM880.993 177.749C880.993 178.025 881.217 178.249 881.493 178.249C881.769 178.249 881.993 178.025 881.993 177.749L880.993 177.749ZM881.993 173.759C881.993 173.483 881.769 173.259 881.493 173.259C881.217 173.259 880.993 173.483 880.993 173.759L881.993 173.759ZM880.993 169.768C880.993 170.044 881.217 170.268 881.493 170.268C881.769 170.268 881.993 170.044 881.993 169.768L880.993 169.768ZM881.993 165.777C881.993 165.501 881.769 165.277 881.493 165.277C881.217 165.277 880.993 165.501 880.993 165.777L881.993 165.777ZM880.993 161.787C880.993 162.063 881.217 162.287 881.493 162.287C881.769 162.287 881.993 162.063 881.993 161.787L880.993 161.787ZM881.993 157.796C881.993 157.52 881.769 157.296 881.493 157.296C881.217 157.296 880.993 157.52 880.993 157.796L881.993 157.796ZM880.993 153.805C880.993 154.081 881.217 154.305 881.493 154.305C881.769 154.305 881.993 154.081 881.993 153.805L880.993 153.805ZM881.993 149.815C881.993 149.538 881.769 149.315 881.493 149.315C881.217 149.315 880.993 149.538 880.993 149.815L881.993 149.815ZM880.993 145.824C880.993 146.1 881.217 146.324 881.493 146.324C881.769 146.324 881.993 146.1 881.993 145.824L880.993 145.824ZM881.993 141.833C881.993 141.557 881.769 141.333 881.493 141.333C881.217 141.333 880.993 141.557 880.993 141.833L881.993 141.833ZM880.993 137.843C880.993 138.119 881.217 138.343 881.493 138.343C881.769 138.343 881.993 138.119 881.993 137.843L880.993 137.843ZM881.993 133.852C881.993 133.576 881.769 133.352 881.493 133.352C881.217 133.352 880.993 133.576 880.993 133.852L881.993 133.852ZM880.993 129.861C880.993 130.137 881.217 130.361 881.493 130.361C881.769 130.361 881.993 130.137 881.993 129.861L880.993 129.861ZM881.993 125.871C881.993 125.594 881.769 125.371 881.493 125.371C881.217 125.371 880.993 125.594 880.993 125.871L881.993 125.871ZM880.993 121.88C880.993 122.156 881.217 122.38 881.493 122.38C881.769 122.38 881.993 122.156 881.993 121.88L880.993 121.88ZM881.993 117.889C881.993 117.613 881.769 117.389 881.493 117.389C881.217 117.389 880.993 117.613 880.993 117.889L881.993 117.889ZM880.993 113.898C880.993 114.175 881.217 114.398 881.493 114.398C881.769 114.398 881.993 114.175 881.993 113.898L880.993 113.898ZM881.993 109.908C881.993 109.632 881.769 109.408 881.493 109.408C881.217 109.408 880.993 109.632 880.993 109.908L881.993 109.908ZM880.993 105.917C880.993 106.193 881.217 106.417 881.493 106.417C881.769 106.417 881.993 106.193 881.993 105.917L880.993 105.917ZM881.993 101.926C881.993 101.65 881.769 101.426 881.493 101.426C881.217 101.426 880.993 101.65 880.993 101.926L881.993 101.926ZM880.993 97.9358C880.993 98.2119 881.217 98.4358 881.493 98.4358C881.769 98.4358 881.993 98.2119 881.993 97.9358L880.993 97.9358ZM881.993 93.9451C881.993 93.6689 881.769 93.4451 881.493 93.4451C881.217 93.4451 880.993 93.6689 880.993 93.9451L881.993 93.9451ZM880.993 89.9544C880.993 90.2305 881.217 90.4544 881.493 90.4544C881.769 90.4544 881.993 90.2305 881.993 89.9544L880.993 89.9544ZM881.993 85.9637C881.993 85.6876 881.769 85.4637 881.493 85.4637C881.217 85.4637 880.993 85.6876 880.993 85.9637L881.993 85.9637ZM880.993 81.973C880.993 82.2491 881.217 82.473 881.493 82.473C881.769 82.473 881.993 82.2491 881.993 81.973L880.993 81.973ZM881.993 77.9823C881.993 77.7062 881.769 77.4823 881.493 77.4823C881.217 77.4823 880.993 77.7062 880.993 77.9823L881.993 77.9823ZM880.993 73.9916C880.993 74.2678 881.217 74.4916 881.493 74.4916C881.769 74.4916 881.993 74.2678 881.993 73.9916L880.993 73.9916ZM881.993 70.0009C881.993 69.7248 881.769 69.5009 881.493 69.5009C881.217 69.5009 880.993 69.7248 880.993 70.0009L881.993 70.0009ZM880.993 66.0102C880.993 66.2864 881.217 66.5102 881.493 66.5102C881.769 66.5102 881.993 66.2864 881.993 66.0102L880.993 66.0102ZM881.493 359.325L881.993 359.325L881.993 357.33L881.493 357.33L880.993 357.33L880.993 359.325L881.493 359.325ZM881.493 353.339L881.993 353.339L881.993 349.349L881.493 349.349L880.993 349.349L880.993 353.339L881.493 353.339ZM881.493 345.358L881.993 345.358L881.993 341.367L881.493 341.367L880.993 341.367L880.993 345.358L881.493 345.358ZM881.493 337.377L881.993 337.377L881.993 333.386L881.493 333.386L880.993 333.386L880.993 337.377L881.493 337.377ZM881.493 329.395L881.993 329.395L881.993 325.405L881.493 325.405L880.993 325.405L880.993 329.395L881.493 329.395ZM881.493 321.414L881.993 321.414L881.993 317.423L881.493 317.423L880.993 317.423L880.993 321.414L881.493 321.414ZM881.493 313.432L881.993 313.432L881.993 309.442L881.493 309.442L880.993 309.442L880.993 313.432L881.493 313.432ZM881.493 305.451L881.993 305.451L881.993 301.46L881.493 301.46L880.993 301.46L880.993 305.451L881.493 305.451ZM881.493 297.47L881.993 297.47L881.993 293.479L881.493 293.479L880.993 293.479L880.993 297.47L881.493 297.47ZM881.493 289.488L881.993 289.488L881.993 285.498L881.493 285.498L880.993 285.498L880.993 289.488L881.493 289.488ZM881.493 281.507L881.993 281.507L881.993 277.516L881.493 277.516L880.993 277.516L880.993 281.507L881.493 281.507ZM881.493 273.526L881.993 273.526L881.993 269.535L881.493 269.535L880.993 269.535L880.993 273.526L881.493 273.526ZM881.493 265.544L881.993 265.544L881.993 261.554L881.493 261.554L880.993 261.554L880.993 265.544L881.493 265.544ZM881.493 257.563L881.993 257.563L881.993 253.572L881.493 253.572L880.993 253.572L880.993 257.563L881.493 257.563ZM881.493 249.582L881.993 249.582L881.993 245.591L881.493 245.591L880.993 245.591L880.993 249.582L881.493 249.582ZM881.493 241.6L881.993 241.6L881.993 237.609L881.493 237.609L880.993 237.609L880.993 241.6L881.493 241.6ZM881.493 233.619L881.993 233.619L881.993 229.628L881.493 229.628L880.993 229.628L880.993 233.619L881.493 233.619ZM881.493 225.637L881.993 225.637L881.993 221.647L881.493 221.647L880.993 221.647L880.993 225.637L881.493 225.637ZM881.493 217.656L881.993 217.656L881.993 213.665L881.493 213.665L880.993 213.665L880.993 217.656L881.493 217.656ZM881.493 209.675L881.993 209.675L881.993 205.684L881.493 205.684L880.993 205.684L880.993 209.675L881.493 209.675ZM881.493 201.693L881.993 201.693L881.993 197.703L881.493 197.703L880.993 197.703L880.993 201.693L881.493 201.693ZM881.493 193.712L881.993 193.712L881.993 189.721L881.493 189.721L880.993 189.721L880.993 193.712L881.493 193.712ZM881.493 185.731L881.993 185.731L881.993 181.74L881.493 181.74L880.993 181.74L880.993 185.731L881.493 185.731ZM881.493 177.749L881.993 177.749L881.993 173.759L881.493 173.759L880.993 173.759L880.993 177.749L881.493 177.749ZM881.493 169.768L881.993 169.768L881.993 165.777L881.493 165.777L880.993 165.777L880.993 169.768L881.493 169.768ZM881.493 161.787L881.993 161.787L881.993 157.796L881.493 157.796L880.993 157.796L880.993 161.787L881.493 161.787ZM881.493 153.805L881.993 153.805L881.993 149.815L881.493 149.815L880.993 149.815L880.993 153.805L881.493 153.805ZM881.493 145.824L881.993 145.824L881.993 141.833L881.493 141.833L880.993 141.833L880.993 145.824L881.493 145.824ZM881.493 137.843L881.993 137.843L881.993 133.852L881.493 133.852L880.993 133.852L880.993 137.843L881.493 137.843ZM881.493 129.861L881.993 129.861L881.993 125.871L881.493 125.871L880.993 125.871L880.993 129.861L881.493 129.861ZM881.493 121.88L881.993 121.88L881.993 117.889L881.493 117.889L880.993 117.889L880.993 121.88L881.493 121.88ZM881.493 113.898L881.993 113.898L881.993 109.908L881.493 109.908L880.993 109.908L880.993 113.898L881.493 113.898ZM881.493 105.917L881.993 105.917L881.993 101.926L881.493 101.926L880.993 101.926L880.993 105.917L881.493 105.917ZM881.493 97.9358L881.993 97.9358L881.993 93.9451L881.493 93.9451L880.993 93.9451L880.993 97.9358L881.493 97.9358ZM881.493 89.9544L881.993 89.9544L881.993 85.9637L881.493 85.9637L880.993 85.9637L880.993 89.9544L881.493 89.9544ZM881.493 81.973L881.993 81.973L881.993 77.9823L881.493 77.9823L880.993 77.9823L880.993 81.973L881.493 81.973ZM881.493 73.9916L881.993 73.9916L881.993 70.0009L881.493 70.0009L880.993 70.0009L880.993 73.9916L881.493 73.9916ZM881.493 66.0102L881.993 66.0102L881.993 64.0148L881.493 64.0148L880.993 64.0148L880.993 66.0102L881.493 66.0102Z" fill="#FEC413"/>
<path d="M18.5068 361.992C19.9795 361.992 21.1734 360.798 21.1734 359.325C21.1734 357.853 19.9795 356.659 18.5068 356.659C17.034 356.659 15.8401 357.853 15.8401 359.325C15.8401 360.798 17.034 361.992 18.5068 361.992ZM18.5067 66.6815C19.9795 66.6815 21.1734 65.4876 21.1734 64.0148C21.1734 62.5421 19.9795 61.3482 18.5067 61.3482C17.034 61.3482 15.8401 62.5421 15.8401 64.0148C15.8401 65.4876 17.034 66.6815 18.5067 66.6815ZM19.0068 357.33C19.0068 357.054 18.7829 356.83 18.5068 356.83C18.2306 356.83 18.0068 357.054 18.0068 357.33L19.0068 357.33ZM18.0068 353.339C18.0068 353.615 18.2306 353.839 18.5068 353.839C18.7829 353.839 19.0068 353.615 19.0068 353.339L18.0068 353.339ZM19.0068 349.349C19.0068 349.072 18.7829 348.849 18.5068 348.849C18.2306 348.849 18.0068 349.072 18.0068 349.349L19.0068 349.349ZM18.0068 345.358C18.0068 345.634 18.2306 345.858 18.5068 345.858C18.7829 345.858 19.0068 345.634 19.0068 345.358L18.0068 345.358ZM19.0068 341.367C19.0068 341.091 18.7829 340.867 18.5068 340.867C18.2306 340.867 18.0068 341.091 18.0068 341.367L19.0068 341.367ZM18.0068 337.377C18.0068 337.653 18.2306 337.877 18.5068 337.877C18.7829 337.877 19.0068 337.653 19.0068 337.377L18.0068 337.377ZM19.0068 333.386C19.0068 333.11 18.7829 332.886 18.5068 332.886C18.2306 332.886 18.0068 333.11 18.0068 333.386L19.0068 333.386ZM18.0068 329.395C18.0068 329.671 18.2306 329.895 18.5068 329.895C18.7829 329.895 19.0068 329.671 19.0068 329.395L18.0068 329.395ZM19.0068 325.405C19.0068 325.128 18.7829 324.905 18.5068 324.905C18.2306 324.905 18.0068 325.128 18.0068 325.405L19.0068 325.405ZM18.0068 321.414C18.0068 321.69 18.2306 321.914 18.5068 321.914C18.7829 321.914 19.0068 321.69 19.0068 321.414L18.0068 321.414ZM19.0068 317.423C19.0068 317.147 18.7829 316.923 18.5068 316.923C18.2306 316.923 18.0068 317.147 18.0068 317.423L19.0068 317.423ZM18.0068 313.432C18.0068 313.709 18.2306 313.932 18.5068 313.932C18.7829 313.932 19.0068 313.709 19.0068 313.432L18.0068 313.432ZM19.0068 309.442C19.0068 309.166 18.7829 308.942 18.5068 308.942C18.2306 308.942 18.0068 309.166 18.0068 309.442L19.0068 309.442ZM18.0068 305.451C18.0068 305.727 18.2306 305.951 18.5068 305.951C18.7829 305.951 19.0068 305.727 19.0068 305.451L18.0068 305.451ZM19.0068 301.46C19.0068 301.184 18.7829 300.96 18.5068 300.96C18.2306 300.96 18.0068 301.184 18.0068 301.46L19.0068 301.46ZM18.0068 297.47C18.0068 297.746 18.2306 297.97 18.5068 297.97C18.7829 297.97 19.0068 297.746 19.0068 297.47L18.0068 297.47ZM19.0068 293.479C19.0068 293.203 18.7829 292.979 18.5068 292.979C18.2306 292.979 18.0068 293.203 18.0068 293.479L19.0068 293.479ZM18.0068 289.488C18.0068 289.765 18.2306 289.988 18.5068 289.988C18.7829 289.988 19.0068 289.765 19.0068 289.488L18.0068 289.488ZM19.0068 285.498C19.0068 285.222 18.7829 284.998 18.5068 284.998C18.2306 284.998 18.0068 285.222 18.0068 285.498L19.0068 285.498ZM18.0068 281.507C18.0068 281.783 18.2306 282.007 18.5068 282.007C18.7829 282.007 19.0068 281.783 19.0068 281.507L18.0068 281.507ZM19.0068 277.516C19.0068 277.24 18.7829 277.016 18.5068 277.016C18.2306 277.016 18.0068 277.24 18.0068 277.516L19.0068 277.516ZM18.0068 273.526C18.0068 273.802 18.2306 274.026 18.5068 274.026C18.7829 274.026 19.0068 273.802 19.0068 273.526L18.0068 273.526ZM19.0068 269.535C19.0068 269.259 18.7829 269.035 18.5068 269.035C18.2306 269.035 18.0068 269.259 18.0068 269.535L19.0068 269.535ZM18.0068 265.544C18.0068 265.82 18.2306 266.044 18.5068 266.044C18.7829 266.044 19.0068 265.82 19.0068 265.544L18.0068 265.544ZM19.0068 261.554C19.0068 261.277 18.7829 261.054 18.5068 261.054C18.2306 261.054 18.0068 261.277 18.0068 261.554L19.0068 261.554ZM18.0068 257.563C18.0068 257.839 18.2306 258.063 18.5068 258.063C18.7829 258.063 19.0068 257.839 19.0068 257.563L18.0068 257.563ZM19.0068 253.572C19.0068 253.296 18.7829 253.072 18.5068 253.072C18.2306 253.072 18.0068 253.296 18.0068 253.572L19.0068 253.572ZM18.0068 249.582C18.0068 249.858 18.2306 250.082 18.5068 250.082C18.7829 250.082 19.0068 249.858 19.0068 249.582L18.0068 249.582ZM19.0068 245.591C19.0068 245.315 18.7829 245.091 18.5068 245.091C18.2306 245.091 18.0068 245.315 18.0068 245.591L19.0068 245.591ZM18.0068 241.6C18.0068 241.876 18.2306 242.1 18.5068 242.1C18.7829 242.1 19.0068 241.876 19.0068 241.6L18.0068 241.6ZM19.0068 237.609C19.0068 237.333 18.7829 237.109 18.5068 237.109C18.2306 237.109 18.0068 237.333 18.0068 237.609L19.0068 237.609ZM18.0068 233.619C18.0068 233.895 18.2306 234.119 18.5068 234.119C18.7829 234.119 19.0068 233.895 19.0068 233.619L18.0068 233.619ZM19.0068 229.628C19.0068 229.352 18.7829 229.128 18.5068 229.128C18.2306 229.128 18.0068 229.352 18.0068 229.628L19.0068 229.628ZM18.0068 225.637C18.0068 225.914 18.2306 226.137 18.5068 226.137C18.7829 226.137 19.0068 225.914 19.0068 225.637L18.0068 225.637ZM19.0068 221.647C19.0068 221.371 18.7829 221.147 18.5068 221.147C18.2306 221.147 18.0068 221.371 18.0068 221.647L19.0068 221.647ZM18.0068 217.656C18.0068 217.932 18.2306 218.156 18.5068 218.156C18.7829 218.156 19.0068 217.932 19.0068 217.656L18.0068 217.656ZM19.0068 213.665C19.0068 213.389 18.7829 213.165 18.5068 213.165C18.2306 213.165 18.0068 213.389 18.0068 213.665L19.0068 213.665ZM18.0068 209.675C18.0068 209.951 18.2306 210.175 18.5068 210.175C18.7829 210.175 19.0068 209.951 19.0068 209.675L18.0068 209.675ZM19.0068 205.684C19.0068 205.408 18.7829 205.184 18.5068 205.184C18.2306 205.184 18.0068 205.408 18.0068 205.684L19.0068 205.684ZM18.0068 201.693C18.0068 201.97 18.2306 202.193 18.5068 202.193C18.7829 202.193 19.0068 201.97 19.0068 201.693L18.0068 201.693ZM19.0068 197.703C19.0068 197.427 18.7829 197.203 18.5068 197.203C18.2306 197.203 18.0068 197.427 18.0068 197.703L19.0068 197.703ZM18.0068 193.712C18.0068 193.988 18.2306 194.212 18.5068 194.212C18.7829 194.212 19.0068 193.988 19.0068 193.712L18.0068 193.712ZM19.0068 189.721C19.0068 189.445 18.7829 189.221 18.5068 189.221C18.2306 189.221 18.0068 189.445 18.0068 189.721L19.0068 189.721ZM18.0068 185.731C18.0068 186.007 18.2306 186.231 18.5068 186.231C18.7829 186.231 19.0068 186.007 19.0068 185.731L18.0068 185.731ZM19.0068 181.74C19.0068 181.464 18.7829 181.24 18.5068 181.24C18.2306 181.24 18.0068 181.464 18.0068 181.74L19.0068 181.74ZM18.0068 177.749C18.0068 178.025 18.2306 178.249 18.5068 178.249C18.7829 178.249 19.0068 178.025 19.0068 177.749L18.0068 177.749ZM19.0068 173.759C19.0068 173.483 18.7829 173.259 18.5068 173.259C18.2306 173.259 18.0068 173.483 18.0068 173.759L19.0068 173.759ZM18.0068 169.768C18.0068 170.044 18.2306 170.268 18.5068 170.268C18.7829 170.268 19.0068 170.044 19.0068 169.768L18.0068 169.768ZM19.0068 165.777C19.0068 165.501 18.7829 165.277 18.5068 165.277C18.2306 165.277 18.0068 165.501 18.0068 165.777L19.0068 165.777ZM18.0068 161.787C18.0068 162.063 18.2306 162.287 18.5068 162.287C18.7829 162.287 19.0068 162.063 19.0068 161.787L18.0068 161.787ZM19.0068 157.796C19.0068 157.52 18.7829 157.296 18.5068 157.296C18.2306 157.296 18.0068 157.52 18.0068 157.796L19.0068 157.796ZM18.0068 153.805C18.0068 154.081 18.2306 154.305 18.5068 154.305C18.7829 154.305 19.0068 154.081 19.0068 153.805L18.0068 153.805ZM19.0068 149.815C19.0068 149.538 18.7829 149.315 18.5068 149.315C18.2306 149.315 18.0068 149.538 18.0068 149.815L19.0068 149.815ZM18.0068 145.824C18.0068 146.1 18.2306 146.324 18.5068 146.324C18.7829 146.324 19.0068 146.1 19.0068 145.824L18.0068 145.824ZM19.0068 141.833C19.0068 141.557 18.7829 141.333 18.5068 141.333C18.2306 141.333 18.0068 141.557 18.0068 141.833L19.0068 141.833ZM18.0067 137.843C18.0067 138.119 18.2306 138.343 18.5067 138.343C18.7829 138.343 19.0067 138.119 19.0067 137.843L18.0067 137.843ZM19.0067 133.852C19.0067 133.576 18.7829 133.352 18.5067 133.352C18.2306 133.352 18.0067 133.576 18.0067 133.852L19.0067 133.852ZM18.0067 129.861C18.0067 130.137 18.2306 130.361 18.5067 130.361C18.7829 130.361 19.0067 130.137 19.0067 129.861L18.0067 129.861ZM19.0067 125.871C19.0067 125.594 18.7829 125.371 18.5067 125.371C18.2306 125.371 18.0067 125.594 18.0067 125.871L19.0067 125.871ZM18.0067 121.88C18.0067 122.156 18.2306 122.38 18.5067 122.38C18.7829 122.38 19.0067 122.156 19.0067 121.88L18.0067 121.88ZM19.0067 117.889C19.0067 117.613 18.7829 117.389 18.5067 117.389C18.2306 117.389 18.0067 117.613 18.0067 117.889L19.0067 117.889ZM18.0067 113.898C18.0067 114.175 18.2306 114.398 18.5067 114.398C18.7829 114.398 19.0067 114.175 19.0067 113.898L18.0067 113.898ZM19.0067 109.908C19.0067 109.632 18.7829 109.408 18.5067 109.408C18.2306 109.408 18.0067 109.632 18.0067 109.908L19.0067 109.908ZM18.0067 105.917C18.0067 106.193 18.2306 106.417 18.5067 106.417C18.7829 106.417 19.0067 106.193 19.0067 105.917L18.0067 105.917ZM19.0067 101.926C19.0067 101.65 18.7829 101.426 18.5067 101.426C18.2306 101.426 18.0067 101.65 18.0067 101.926L19.0067 101.926ZM18.0067 97.9358C18.0067 98.2119 18.2306 98.4358 18.5067 98.4358C18.7829 98.4358 19.0067 98.2119 19.0067 97.9358L18.0067 97.9358ZM19.0067 93.9451C19.0067 93.6689 18.7829 93.4451 18.5067 93.4451C18.2306 93.4451 18.0067 93.6689 18.0067 93.9451L19.0067 93.9451ZM18.0067 89.9544C18.0067 90.2305 18.2306 90.4544 18.5067 90.4544C18.7829 90.4544 19.0067 90.2305 19.0067 89.9544L18.0067 89.9544ZM19.0067 85.9637C19.0067 85.6876 18.7829 85.4637 18.5067 85.4637C18.2306 85.4637 18.0067 85.6876 18.0067 85.9637L19.0067 85.9637ZM18.0067 81.973C18.0067 82.2491 18.2306 82.473 18.5067 82.473C18.7829 82.473 19.0067 82.2491 19.0067 81.973L18.0067 81.973ZM19.0067 77.9823C19.0067 77.7062 18.7829 77.4823 18.5067 77.4823C18.2306 77.4823 18.0067 77.7062 18.0067 77.9823L19.0067 77.9823ZM18.0067 73.9916C18.0067 74.2678 18.2306 74.4916 18.5067 74.4916C18.7829 74.4916 19.0067 74.2678 19.0067 73.9916L18.0067 73.9916ZM19.0067 70.0009C19.0067 69.7248 18.7829 69.5009 18.5067 69.5009C18.2306 69.5009 18.0067 69.7248 18.0067 70.0009L19.0067 70.0009ZM18.0067 66.0102C18.0067 66.2864 18.2306 66.5102 18.5067 66.5102C18.7829 66.5102 19.0067 66.2864 19.0067 66.0102L18.0067 66.0102ZM18.5068 359.325L19.0068 359.325L19.0068 357.33L18.5068 357.33L18.0068 357.33L18.0068 359.325L18.5068 359.325ZM18.5068 353.339L19.0068 353.339L19.0068 349.349L18.5068 349.349L18.0068 349.349L18.0068 353.339L18.5068 353.339ZM18.5068 345.358L19.0068 345.358L19.0068 341.367L18.5068 341.367L18.0068 341.367L18.0068 345.358L18.5068 345.358ZM18.5068 337.377L19.0068 337.377L19.0068 333.386L18.5068 333.386L18.0068 333.386L18.0068 337.377L18.5068 337.377ZM18.5068 329.395L19.0068 329.395L19.0068 325.405L18.5068 325.405L18.0068 325.405L18.0068 329.395L18.5068 329.395ZM18.5068 321.414L19.0068 321.414L19.0068 317.423L18.5068 317.423L18.0068 317.423L18.0068 321.414L18.5068 321.414ZM18.5068 313.432L19.0068 313.432L19.0068 309.442L18.5068 309.442L18.0068 309.442L18.0068 313.432L18.5068 313.432ZM18.5068 305.451L19.0068 305.451L19.0068 301.46L18.5068 301.46L18.0068 301.46L18.0068 305.451L18.5068 305.451ZM18.5068 297.47L19.0068 297.47L19.0068 293.479L18.5068 293.479L18.0068 293.479L18.0068 297.47L18.5068 297.47ZM18.5068 289.488L19.0068 289.488L19.0068 285.498L18.5068 285.498L18.0068 285.498L18.0068 289.488L18.5068 289.488ZM18.5068 281.507L19.0068 281.507L19.0068 277.516L18.5068 277.516L18.0068 277.516L18.0068 281.507L18.5068 281.507ZM18.5068 273.526L19.0068 273.526L19.0068 269.535L18.5068 269.535L18.0068 269.535L18.0068 273.526L18.5068 273.526ZM18.5068 265.544L19.0068 265.544L19.0068 261.554L18.5068 261.554L18.0068 261.554L18.0068 265.544L18.5068 265.544ZM18.5068 257.563L19.0068 257.563L19.0068 253.572L18.5068 253.572L18.0068 253.572L18.0068 257.563L18.5068 257.563ZM18.5068 249.582L19.0068 249.582L19.0068 245.591L18.5068 245.591L18.0068 245.591L18.0068 249.582L18.5068 249.582ZM18.5068 241.6L19.0068 241.6L19.0068 237.609L18.5068 237.609L18.0068 237.609L18.0068 241.6L18.5068 241.6ZM18.5068 233.619L19.0068 233.619L19.0068 229.628L18.5068 229.628L18.0068 229.628L18.0068 233.619L18.5068 233.619ZM18.5068 225.637L19.0068 225.637L19.0068 221.647L18.5068 221.647L18.0068 221.647L18.0068 225.637L18.5068 225.637ZM18.5068 217.656L19.0068 217.656L19.0068 213.665L18.5068 213.665L18.0068 213.665L18.0068 217.656L18.5068 217.656ZM18.5068 209.675L19.0068 209.675L19.0068 205.684L18.5068 205.684L18.0068 205.684L18.0068 209.675L18.5068 209.675ZM18.5068 201.693L19.0068 201.693L19.0068 197.703L18.5068 197.703L18.0068 197.703L18.0068 201.693L18.5068 201.693ZM18.5068 193.712L19.0068 193.712L19.0068 189.721L18.5068 189.721L18.0068 189.721L18.0068 193.712L18.5068 193.712ZM18.5068 185.731L19.0068 185.731L19.0068 181.74L18.5068 181.74L18.0068 181.74L18.0068 185.731L18.5068 185.731ZM18.5068 177.749L19.0068 177.749L19.0068 173.759L18.5068 173.759L18.0068 173.759L18.0068 177.749L18.5068 177.749ZM18.5068 169.768L19.0068 169.768L19.0068 165.777L18.5068 165.777L18.0068 165.777L18.0068 169.768L18.5068 169.768ZM18.5068 161.787L19.0068 161.787L19.0068 157.796L18.5068 157.796L18.0068 157.796L18.0068 161.787L18.5068 161.787ZM18.5068 153.805L19.0068 153.805L19.0068 149.815L18.5068 149.815L18.0068 149.815L18.0068 153.805L18.5068 153.805ZM18.5068 145.824L19.0068 145.824L19.0068 141.833L18.5068 141.833L18.0068 141.833L18.0068 145.824L18.5068 145.824ZM18.5067 137.843L19.0067 137.843L19.0067 133.852L18.5067 133.852L18.0067 133.852L18.0067 137.843L18.5067 137.843ZM18.5067 129.861L19.0067 129.861L19.0067 125.871L18.5067 125.871L18.0067 125.871L18.0067 129.861L18.5067 129.861ZM18.5067 121.88L19.0067 121.88L19.0067 117.889L18.5067 117.889L18.0067 117.889L18.0067 121.88L18.5067 121.88ZM18.5067 113.898L19.0067 113.898L19.0067 109.908L18.5067 109.908L18.0067 109.908L18.0067 113.898L18.5067 113.898ZM18.5067 105.917L19.0067 105.917L19.0067 101.926L18.5067 101.926L18.0067 101.926L18.0067 105.917L18.5067 105.917ZM18.5067 97.9358L19.0067 97.9358L19.0067 93.9451L18.5067 93.9451L18.0067 93.9451L18.0067 97.9358L18.5067 97.9358ZM18.5067 89.9544L19.0067 89.9544L19.0067 85.9637L18.5067 85.9637L18.0067 85.9637L18.0067 89.9544L18.5067 89.9544ZM18.5067 81.973L19.0067 81.973L19.0067 77.9823L18.5067 77.9823L18.0067 77.9823L18.0067 81.973L18.5067 81.973ZM18.5067 73.9916L19.0067 73.9916L19.0067 70.0009L18.5067 70.0009L18.0067 70.0009L18.0067 73.9916L18.5067 73.9916ZM18.5067 66.0102L19.0067 66.0102L19.0067 64.0148L18.5067 64.0148L18.0067 64.0148L18.0067 66.0102L18.5067 66.0102Z" fill="#FEC413"/>
</svg>
