<svg width="746" height="275" viewBox="0 0 746 275" fill="none" xmlns="http://www.w3.org/2000/svg">
<path d="M156.441 258.742L152.131 238.312L141.151 245.492L148.311 234.502L127.871 230.232L148.301 225.922L141.121 214.942L152.111 222.102L156.381 201.662L160.691 222.092L171.671 214.912L164.511 225.902L184.951 230.172L164.521 234.482L171.701 245.462L160.711 238.302L156.441 258.742ZM153.141 235.852L156.431 251.442L159.691 235.842L166.531 240.302L162.061 233.462L177.651 230.172L162.051 226.912L166.511 220.072L159.671 224.542L156.381 208.952L153.121 224.552L146.281 220.092L150.751 226.932L135.161 230.222L150.761 233.482L146.301 240.322L153.141 235.852Z" fill="#FBC841"/>
<path d="M600.639 96.3409L596.329 75.9109L585.349 83.0909L592.509 72.1009L572.069 67.8309L592.499 63.5209L585.319 52.5409L596.309 59.7009L600.579 39.2609L604.889 59.6909L615.869 52.5109L608.709 63.5009L629.149 67.7709L608.719 72.0809L615.899 83.0609L604.909 75.9009L600.639 96.3409ZM597.339 73.4509L600.629 89.0409L603.889 73.4409L610.729 77.9009L606.259 71.0609L621.849 67.7709L606.249 64.5109L610.709 57.6709L603.869 62.1409L600.579 46.5509L597.319 62.1509L590.479 57.6909L594.949 64.5309L579.359 67.8209L594.959 71.0809L590.499 77.9209L597.339 73.4509Z" fill="#FBC841"/>
<path d="M18.6328 139.935C18.9228 139.935 19.2128 140.045 19.4328 140.265C19.8728 140.705 19.8728 141.415 19.4328 141.855L16.1528 145.115C15.7128 145.555 14.9928 145.555 14.5528 145.115C14.1128 144.675 14.1128 143.965 14.5528 143.525L17.8328 140.265C18.0528 140.045 18.3428 139.935 18.6328 139.935Z" fill="#FBC841"/>
<path d="M11.7428 146.785C12.0328 146.785 12.3228 146.895 12.5428 147.115C12.9828 147.555 12.9828 148.265 12.5428 148.705L9.26285 151.965C8.82285 152.405 8.10284 152.405 7.66284 151.965C7.22284 151.525 7.22284 150.815 7.66284 150.375L10.9428 147.115C11.1628 146.895 11.4528 146.785 11.7428 146.785Z" fill="#FBC841"/>
<path d="M15.4128 146.725C15.7028 146.725 15.9928 146.835 16.2128 147.055L19.4328 150.255C19.8728 150.695 19.8728 151.405 19.4328 151.845C18.9928 152.285 18.2728 152.285 17.8328 151.845L14.6129 148.645C14.1729 148.205 14.1729 147.495 14.6129 147.055C14.8329 146.835 15.1228 146.725 15.4128 146.725Z" fill="#FBC841"/>
<path d="M8.47285 139.825C8.76285 139.825 9.05284 139.935 9.27284 140.155L12.6028 143.465C13.0428 143.905 13.0428 144.615 12.6028 145.055C12.1628 145.495 11.4429 145.495 11.0029 145.055L7.67285 141.745C7.23285 141.305 7.23285 140.595 7.67285 140.155C7.89285 139.935 8.18285 139.825 8.47285 139.825Z" fill="#FBC841"/>
<path d="M1.85284 144.935H10.0029C10.6229 144.935 11.1328 145.435 11.1328 146.055C11.1328 146.675 10.6229 147.175 10.0029 147.175H1.85284C1.23284 147.175 0.722855 146.675 0.722855 146.055C0.722855 145.435 1.23284 144.935 1.85284 144.935Z" fill="#FBC841"/>
<path d="M17.1129 144.935H25.1429C25.7629 144.935 26.2728 145.435 26.2728 146.055C26.2728 146.675 25.7629 147.175 25.1429 147.175H17.1129C16.4929 147.175 15.9828 146.675 15.9828 146.055C15.9828 145.435 16.4929 144.935 17.1129 144.935Z" fill="#FBC841"/>
<path d="M13.4928 133.345C14.1128 133.345 14.6228 133.845 14.6228 134.465V142.565C14.6228 143.185 14.1128 143.685 13.4928 143.685C12.8728 143.685 12.3629 143.185 12.3629 142.565V134.465C12.3629 133.845 12.8728 133.345 13.4928 133.345Z" fill="#FBC841"/>
<path d="M13.4928 148.525C14.1128 148.525 14.6228 149.025 14.6228 149.645V157.635C14.6228 158.255 14.1128 158.755 13.4928 158.755C12.8728 158.755 12.3629 158.255 12.3629 157.635V149.645C12.3629 149.025 12.8728 148.525 13.4928 148.525Z" fill="#FBC841"/>
<path d="M9.14285 146.905L12.7628 150.495C13.2028 150.935 13.9229 150.935 14.3629 150.495L17.9828 146.905C18.4228 146.465 18.4228 145.755 17.9828 145.315L14.3629 141.725C14.1429 141.505 13.8528 141.395 13.5628 141.395C13.2728 141.395 12.9828 141.505 12.7628 141.725L9.14285 145.315C8.70285 145.755 8.70285 146.465 9.14285 146.905Z" fill="#FBC841"/>
<path d="M738.232 7.48486C738.522 7.48486 738.812 7.59487 739.032 7.81487C739.472 8.25487 739.472 8.96488 739.032 9.40488L735.752 12.6649C735.312 13.1049 734.592 13.1049 734.152 12.6649C733.712 12.2249 733.712 11.5149 734.152 11.0749L737.432 7.81487C737.652 7.59487 737.942 7.48486 738.232 7.48486Z" fill="#FBC841"/>
<path d="M731.342 14.3348C731.632 14.3348 731.922 14.4448 732.142 14.6648C732.582 15.1048 732.582 15.8148 732.142 16.2548L728.862 19.5148C728.422 19.9548 727.702 19.9548 727.262 19.5148C726.822 19.0748 726.822 18.3648 727.262 17.9248L730.542 14.6648C730.762 14.4448 731.052 14.3348 731.342 14.3348Z" fill="#FBC841"/>
<path d="M735.012 14.2748C735.302 14.2748 735.592 14.3848 735.812 14.6048L739.032 17.8048C739.472 18.2448 739.472 18.9548 739.032 19.3948C738.592 19.8348 737.872 19.8348 737.432 19.3948L734.212 16.1948C733.772 15.7548 733.772 15.0448 734.212 14.6048C734.432 14.3848 734.722 14.2748 735.012 14.2748Z" fill="#FBC841"/>
<path d="M728.072 7.37488C728.362 7.37488 728.652 7.48486 728.872 7.70486L732.202 11.0149C732.642 11.4549 732.642 12.1649 732.202 12.6049C731.762 13.0449 731.042 13.0449 730.602 12.6049L727.272 9.29488C726.832 8.85488 726.832 8.14486 727.272 7.70486C727.492 7.48486 727.782 7.37488 728.072 7.37488Z" fill="#FBC841"/>
<path d="M721.452 12.4849H729.602C730.222 12.4849 730.732 12.9849 730.732 13.6049C730.732 14.2249 730.222 14.7249 729.602 14.7249H721.452C720.832 14.7249 720.322 14.2249 720.322 13.6049C720.322 12.9849 720.832 12.4849 721.452 12.4849Z" fill="#FBC841"/>
<path d="M736.712 12.4849H744.742C745.362 12.4849 745.872 12.9849 745.872 13.6049C745.872 14.2249 745.362 14.7249 744.742 14.7249H736.712C736.092 14.7249 735.582 14.2249 735.582 13.6049C735.582 12.9849 736.092 12.4849 736.712 12.4849Z" fill="#FBC841"/>
<path d="M733.092 0.894836C733.712 0.894836 734.222 1.39485 734.222 2.01485V10.1148C734.222 10.7348 733.712 11.2348 733.092 11.2348C732.472 11.2348 731.962 10.7348 731.962 10.1148V2.01485C731.962 1.39485 732.472 0.894836 733.092 0.894836Z" fill="#FBC841"/>
<path d="M733.092 16.0748C733.712 16.0748 734.222 16.5748 734.222 17.1948V25.1848C734.222 25.8048 733.712 26.3048 733.092 26.3048C732.472 26.3048 731.962 25.8048 731.962 25.1848V17.1948C731.962 16.5748 732.472 16.0748 733.092 16.0748Z" fill="#FBC841"/>
<path d="M728.742 14.4548L732.362 18.0448C732.802 18.4848 733.522 18.4848 733.962 18.0448L737.582 14.4548C738.022 14.0148 738.022 13.3048 737.582 12.8648L733.962 9.27483C733.742 9.05483 733.452 8.94482 733.162 8.94482C732.872 8.94482 732.582 9.05483 732.362 9.27483L728.742 12.8648C728.302 13.3048 728.302 14.0148 728.742 14.4548Z" fill="#FBC841"/>
<path d="M112.74 20.7444C112.74 18.6044 114.48 16.8644 116.62 16.8644C118.76 16.8644 120.5 18.6044 120.5 20.7444C120.5 22.8844 118.76 24.6245 116.62 24.6245C114.48 24.6245 112.74 22.8844 112.74 20.7444Z" fill="#FBC841"/>
<path d="M687.307 193.539C687.307 191.399 689.047 189.659 691.187 189.659C693.327 189.659 695.067 191.399 695.067 193.539C695.067 195.679 693.327 197.419 691.187 197.419C689.047 197.419 687.307 195.679 687.307 193.539Z" fill="#FBC841"/>
<path d="M195.886 99.3303C196.334 99.5075 196.819 99.6585 197.319 99.7836C199.835 100.414 201.716 102.503 202.19 105.051C202.331 105.811 202.513 106.52 202.732 107.088C202.956 106.52 203.133 105.811 203.274 105.051C203.753 102.503 205.629 100.414 208.145 99.7836C208.645 99.6585 209.124 99.5075 209.578 99.3303C209.578 99.3303 209.13 99.2261 208.478 99.0907C205.837 98.5228 203.784 96.4232 203.305 93.7662C203.159 92.9482 202.972 92.1824 202.732 91.578C202.492 92.1824 202.305 92.9482 202.159 93.7609C201.685 96.4128 199.637 98.5124 197.006 99.0802C196.339 99.2261 195.881 99.3303 195.881 99.3303H195.886Z" stroke="#FEC413" stroke-linecap="round" stroke-linejoin="round"/>
<path d="M554.228 266.495C554.676 266.672 555.16 266.823 555.66 266.948C558.177 267.578 560.057 269.667 560.531 272.215C560.672 272.976 560.854 273.684 561.073 274.252C561.297 273.684 561.474 272.976 561.615 272.215C562.094 269.667 563.97 267.578 566.486 266.948C566.987 266.823 567.466 266.672 567.919 266.495C567.919 266.495 567.471 266.39 566.82 266.255C564.178 265.687 562.126 263.587 561.646 260.93C561.501 260.112 561.313 259.347 561.073 258.742C560.834 259.347 560.646 260.112 560.5 260.925C560.026 263.577 557.979 265.677 555.348 266.244C554.681 266.39 554.222 266.495 554.222 266.495H554.228Z" stroke="#FEC413" stroke-linecap="round" stroke-linejoin="round"/>
<path d="M433.042 85.6223C442.962 94.5721 450.303 106.315 453.827 119.613" stroke="#F0F0F0" stroke-width="3.98951" stroke-linecap="round" stroke-linejoin="round"/>
<path d="M436.26 187.794C426.924 196.331 415.275 202.369 402.362 204.842" stroke="#F0F0F0" stroke-width="3.98951" stroke-linecap="round" stroke-linejoin="round"/>
<path d="M455.928 169.322L440.396 159.96" stroke="#F0F0F0" stroke-width="3.98951" stroke-linecap="round" stroke-linejoin="round"/>
<path d="M486.235 147.22L466.42 147.22" stroke="#F0F0F0" stroke-width="3.98951" stroke-linecap="round" stroke-linejoin="round"/>
<path d="M468.508 157.101L457.564 157.101" stroke="#F0F0F0" stroke-width="3.98951" stroke-linecap="round" stroke-linejoin="round"/>
<path d="M467.697 166.33L482.166 166.33L482.166 157.101L497.898 157.101" stroke="#F0F0F0" stroke-width="3.98951" stroke-linecap="round" stroke-linejoin="round"/>
<path d="M476.195 174.136L488.988 174.136" stroke="#F0F0F0" stroke-width="3.98951" stroke-linecap="round" stroke-linejoin="round"/>
<path d="M503.071 140.279L496.501 140.279" stroke="#F0F0F0" stroke-width="3.98951" stroke-linecap="round" stroke-linejoin="round"/>
<path d="M494.254 112.02L462.378 112.02" stroke="#F0F0F0" stroke-width="3.98951" stroke-linecap="round" stroke-linejoin="round"/>
<path d="M479.24 98.7744L488.615 98.7744" stroke="#F0F0F0" stroke-width="3.98951" stroke-linecap="round" stroke-linejoin="round"/>
<path d="M416.006 72.1245C413.613 70.6617 406.192 67.9355 402.243 67.5898" stroke="#F0F0F0" stroke-width="3.98951" stroke-linecap="round" stroke-linejoin="round"/>
<path d="M436.26 184.695C436.26 186.406 437.647 187.794 439.358 187.794C441.07 187.794 442.457 186.406 442.457 184.695C442.457 182.984 441.07 181.597 439.358 181.597C437.647 181.597 436.26 182.984 436.26 184.695Z" stroke="#F0F0F0" stroke-width="3.98951" stroke-linecap="round" stroke-linejoin="round"/>
<path d="M427.004 82.6835C427.004 84.5196 428.493 86.0081 430.329 86.0081C432.165 86.0081 433.653 84.5196 433.653 82.6835C433.653 80.8474 432.165 79.3589 430.329 79.3589C428.493 79.3589 427.004 80.8474 427.004 82.6835Z" stroke="#F0F0F0" stroke-width="3.98951" stroke-linecap="round" stroke-linejoin="round"/>
<path d="M364.648 132.832C364.648 145.728 375.103 156.183 388 156.183C400.897 156.183 411.352 145.728 411.352 132.832C411.352 119.935 400.897 109.48 388 109.48C375.103 109.48 364.648 119.935 364.648 132.832Z" stroke="#F0F0F0" stroke-width="3.98951" stroke-linecap="round" stroke-linejoin="round"/>
<path d="M353.411 132.832C353.411 151.935 368.897 167.421 388 167.421C407.103 167.421 422.589 151.935 422.589 132.832C422.589 113.729 407.103 98.2426 388 98.2426C368.897 98.2426 353.411 113.729 353.411 132.832Z" stroke="#F0F0F0" stroke-width="3.98951" stroke-linecap="round" stroke-linejoin="round"/>
<path d="M335.604 105.703C345.419 86.7661 365.207 73.8267 388 73.8267L388 57.4299C390.58 57.4299 399.609 57.9086 402.788 58.6932" stroke="#F0F0F0" stroke-width="3.98951" stroke-linecap="round" stroke-linejoin="round"/>
<path d="M467.697 166.33C454.611 197.422 423.852 219.258 388 219.258C351.496 219.258 320.271 196.624 307.611 164.615" stroke="#F0F0F0" stroke-width="3.98951" stroke-linecap="round" stroke-linejoin="round"/>
<path d="M308.303 99.3329C321.388 68.2414 352.148 46.4055 388 46.4055C424.504 46.4055 455.729 69.0393 468.389 101.048" stroke="#F0F0F0" stroke-width="3.98951" stroke-linecap="round" stroke-linejoin="round"/>
<path d="M476.195 174.136C460.662 207.262 427.004 230.202 388 230.202C346.217 230.202 310.577 203.871 296.76 166.902" stroke="#F0F0F0" stroke-width="3.98951" stroke-linecap="round" stroke-linejoin="round"/>
<path d="M299.805 91.5268C315.338 58.4006 348.996 35.4609 388 35.4609C429.783 35.4609 465.423 61.7917 479.24 98.7612" stroke="#F0F0F0" stroke-width="3.98951" stroke-linecap="round" stroke-linejoin="round"/>
<path d="M342.958 180.041C333.038 171.091 325.697 159.348 322.173 146.05" stroke="#F0F0F0" stroke-width="3.98951" stroke-linecap="round" stroke-linejoin="round"/>
<path d="M339.74 77.8694C349.076 69.3319 360.725 63.2944 373.638 60.8209" stroke="#F0F0F0" stroke-width="3.98951" stroke-linecap="round" stroke-linejoin="round"/>
<path d="M285.789 137.619L329.195 137.619C329.195 137.619 347.294 156.21 353.81 161.888C360.898 168.086 374.303 177.7 388 177.7C401.019 177.7 414.118 169.149 420.94 163.298C427.762 157.447 446.845 137.034 446.845 137.034L474.134 137.034L474.134 128.057" stroke="#F0F0F0" stroke-width="3.98951" stroke-linecap="round" stroke-linejoin="round"/>
<path d="M320.072 96.3408L335.604 105.703" stroke="#F0F0F0" stroke-width="3.98951" stroke-linecap="round" stroke-linejoin="round"/>
<path d="M289.765 118.443L309.58 118.443" stroke="#F0F0F0" stroke-width="3.98951" stroke-linecap="round" stroke-linejoin="round"/>
<path d="M307.492 108.562L318.436 108.562" stroke="#F0F0F0" stroke-width="3.98951" stroke-linecap="round" stroke-linejoin="round"/>
<path d="M308.303 99.3329L293.834 99.3329L293.834 108.562L278.102 108.562" stroke="#F0F0F0" stroke-width="3.98951" stroke-linecap="round" stroke-linejoin="round"/>
<path d="M299.805 91.5268L287.012 91.5268" stroke="#F0F0F0" stroke-width="3.98951" stroke-linecap="round" stroke-linejoin="round"/>
<path d="M272.929 125.384L279.499 125.384" stroke="#F0F0F0" stroke-width="3.98951" stroke-linecap="round" stroke-linejoin="round"/>
<path d="M301.867 137.619L301.867 128.643L329.155 128.643C329.155 128.643 348.065 108.389 355.06 102.378C361.882 96.527 374.981 87.9762 388 87.9762C401.697 87.9762 415.102 97.5909 422.19 103.788C428.706 109.466 446.805 128.057 446.805 128.057L490.211 128.057" stroke="#F0F0F0" stroke-width="3.98951" stroke-linecap="round" stroke-linejoin="round"/>
<path d="M281.746 153.643L313.622 153.643" stroke="#F0F0F0" stroke-width="3.98951" stroke-linecap="round" stroke-linejoin="round"/>
<path d="M296.76 166.889L287.385 166.889" stroke="#F0F0F0" stroke-width="3.98951" stroke-linecap="round" stroke-linejoin="round"/>
<path d="M359.994 193.539C362.387 195.001 369.808 197.728 373.757 198.073" stroke="#F0F0F0" stroke-width="3.98951" stroke-linecap="round" stroke-linejoin="round"/>
<path d="M373.212 206.97C376.391 207.741 385.433 208.233 388 208.233L388 191.836C410.807 191.836 430.581 178.897 440.396 159.96" stroke="#F0F0F0" stroke-width="3.98951" stroke-linecap="round" stroke-linejoin="round"/>
<path d="M333.543 80.968C333.543 82.6792 334.93 84.0665 336.642 84.0665C338.353 84.0665 339.74 82.6792 339.74 80.968C339.74 79.2567 338.353 77.8694 336.642 77.8694C334.93 77.8694 333.543 79.2567 333.543 80.968Z" stroke="#F0F0F0" stroke-width="3.98951" stroke-linecap="round" stroke-linejoin="round"/>
<path d="M342.347 182.98C342.347 184.816 343.835 186.304 345.671 186.304C347.507 186.304 348.996 184.816 348.996 182.98C348.996 181.144 347.507 179.655 345.671 179.655C343.835 179.655 342.347 181.144 342.347 182.98Z" stroke="#F0F0F0" stroke-width="3.98951" stroke-linecap="round" stroke-linejoin="round"/>
<path d="M375.167 132.832C375.167 139.919 380.913 145.664 388 145.664C395.087 145.664 400.833 139.919 400.833 132.832C400.833 125.744 395.087 119.999 388 119.999C380.913 119.999 375.167 125.744 375.167 132.832Z" stroke="#F0F0F0" stroke-width="3.98951" stroke-linecap="round" stroke-linejoin="round"/>
</svg>
