<svg width="20" height="27" viewBox="0 0 20 27" fill="none" xmlns="http://www.w3.org/2000/svg">
<path d="M9.33749 19.3049C9.51327 19.4863 9.75155 19.5882 9.99999 19.5882C10.2484 19.5882 10.4867 19.4863 10.6625 19.3049L13.475 16.4C13.6406 16.2163 13.7307 15.9734 13.7265 15.7224C13.7222 15.4715 13.6238 15.232 13.452 15.0545C13.2802 14.877 13.0485 14.7754 12.8056 14.7709C12.5628 14.7665 12.3277 14.8597 12.15 15.0308L9.99999 17.2486L7.84999 15.0282C7.76346 14.9357 7.65998 14.862 7.54558 14.8113C7.43118 14.7605 7.30815 14.7339 7.18367 14.7328C7.05919 14.7318 6.93575 14.7563 6.82055 14.8051C6.70536 14.8539 6.60072 14.9259 6.51274 15.0169C6.42476 15.1079 6.35519 15.2161 6.30811 15.3351C6.26103 15.4542 6.23736 15.5818 6.2385 15.7104C6.23964 15.839 6.26556 15.9661 6.31475 16.0843C6.36394 16.2025 6.43541 16.3093 6.52499 16.3987L9.33749 19.3049ZM9.99999 9.97521C9.73477 9.97521 9.48042 9.86634 9.29288 9.67255C9.10534 9.47876 8.99999 9.21593 8.99999 8.94187C8.99999 8.66782 9.10534 8.40498 9.29288 8.21119C9.48042 8.01741 9.73477 7.90854 9.99999 7.90854C10.2652 7.90854 10.5196 8.01741 10.7071 8.21119C10.8946 8.40498 11 8.66782 11 8.94187C11 9.21593 10.8946 9.47876 10.7071 9.67255C10.5196 9.86634 10.2652 9.97521 9.99999 9.97521ZM8.99999 12.5792C8.99999 12.7149 9.02585 12.8493 9.07611 12.9746C9.12636 13.1 9.20002 13.2139 9.29288 13.3099C9.38574 13.4058 9.49598 13.482 9.6173 13.5339C9.73863 13.5858 9.86866 13.6125 9.99999 13.6125C10.1313 13.6125 10.2613 13.5858 10.3827 13.5339C10.504 13.482 10.6142 13.4058 10.7071 13.3099C10.8 13.2139 10.8736 13.1 10.9239 12.9746C10.9741 12.8493 11 12.7149 11 12.5792C11 12.3051 10.8946 12.0423 10.7071 11.8485C10.5196 11.6547 10.2652 11.5459 9.99999 11.5459C9.73477 11.5459 9.48042 11.6547 9.29288 11.8485C9.10534 12.0423 8.99999 12.3051 8.99999 12.5792Z" fill="#FEC413"/>
<path fill-rule="evenodd" clip-rule="evenodd" d="M10 0.8638C7.5136 0.8638 5.12903 1.88444 3.37087 3.7012C1.61272 5.51796 0.625 7.98202 0.625 10.5513V17.0096C0.625 19.5789 1.61272 22.043 3.37087 23.8597C5.12903 25.6765 7.5136 26.6971 10 26.6971C12.4864 26.6971 14.871 25.6765 16.6291 23.8597C18.3873 22.043 19.375 19.5789 19.375 17.0096V10.5513C19.375 7.98202 18.3873 5.51796 16.6291 3.7012C14.871 1.88444 12.4864 0.8638 10 0.8638ZM2.5 10.5513C2.5 8.49587 3.29018 6.52463 4.6967 5.07122C6.10322 3.61782 8.01088 2.8013 10 2.8013C11.9891 2.8013 13.8968 3.61782 15.3033 5.07122C16.7098 6.52463 17.5 8.49587 17.5 10.5513V17.0096C17.5 19.0651 16.7098 21.0363 15.3033 22.4897C13.8968 23.9431 11.9891 24.7596 10 24.7596C8.01088 24.7596 6.10322 23.9431 4.6967 22.4897C3.29018 21.0363 2.5 19.0651 2.5 17.0096V10.5513Z" fill="#FEC413"/>
</svg>
