<svg width="236" height="200" viewBox="0 0 236 200" fill="none" xmlns="http://www.w3.org/2000/svg">
<path d="M163.042 52.6223C172.962 61.5721 180.303 73.3146 183.827 86.6129" stroke="#F0F0F0" stroke-width="3.98951" stroke-linecap="round" stroke-linejoin="round"/>
<path d="M166.26 154.794C156.924 163.331 145.275 169.369 132.362 171.842" stroke="#F0F0F0" stroke-width="3.98951" stroke-linecap="round" stroke-linejoin="round"/>
<path d="M185.928 136.322L170.396 126.96" stroke="#F0F0F0" stroke-width="3.98951" stroke-linecap="round" stroke-linejoin="round"/>
<path d="M216.235 114.22L196.42 114.22" stroke="#F0F0F0" stroke-width="3.98951" stroke-linecap="round" stroke-linejoin="round"/>
<path d="M198.508 124.101L187.564 124.101" stroke="#F0F0F0" stroke-width="3.98951" stroke-linecap="round" stroke-linejoin="round"/>
<path d="M197.697 133.33L212.166 133.33L212.166 124.101L227.898 124.101" stroke="#F0F0F0" stroke-width="3.98951" stroke-linecap="round" stroke-linejoin="round"/>
<path d="M206.195 141.136L218.988 141.136" stroke="#F0F0F0" stroke-width="3.98951" stroke-linecap="round" stroke-linejoin="round"/>
<path d="M233.071 107.279L226.501 107.279" stroke="#F0F0F0" stroke-width="3.98951" stroke-linecap="round" stroke-linejoin="round"/>
<path d="M224.254 79.0197L192.378 79.0197" stroke="#F0F0F0" stroke-width="3.98951" stroke-linecap="round" stroke-linejoin="round"/>
<path d="M209.24 65.7744L218.615 65.7744" stroke="#F0F0F0" stroke-width="3.98951" stroke-linecap="round" stroke-linejoin="round"/>
<path d="M146.006 39.1245C143.613 37.6617 136.192 34.9355 132.243 34.5898" stroke="#F0F0F0" stroke-width="3.98951" stroke-linecap="round" stroke-linejoin="round"/>
<path d="M166.26 151.695C166.26 153.406 167.647 154.794 169.358 154.794C171.07 154.794 172.457 153.406 172.457 151.695C172.457 149.984 171.07 148.597 169.358 148.597C167.647 148.597 166.26 149.984 166.26 151.695Z" stroke="#F0F0F0" stroke-width="3.98951" stroke-linecap="round" stroke-linejoin="round"/>
<path d="M157.004 49.6835C157.004 51.5196 158.493 53.0081 160.329 53.0081C162.165 53.0081 163.653 51.5196 163.653 49.6835C163.653 47.8474 162.165 46.3589 160.329 46.3589C158.493 46.3589 157.004 47.8474 157.004 49.6835Z" stroke="#F0F0F0" stroke-width="3.98951" stroke-linecap="round" stroke-linejoin="round"/>
<path d="M94.6481 99.8315C94.6481 112.728 105.103 123.183 118 123.183C130.897 123.183 141.352 112.728 141.352 99.8315C141.352 86.9346 130.897 76.4796 118 76.4796C105.103 76.4796 94.6481 86.9346 94.6481 99.8315Z" stroke="#F0F0F0" stroke-width="3.98951" stroke-linecap="round" stroke-linejoin="round"/>
<path d="M83.4109 99.8316C83.4109 118.935 98.897 134.421 118 134.421C137.103 134.421 152.589 118.935 152.589 99.8316C152.589 80.7286 137.103 65.2426 118 65.2426C98.897 65.2426 83.4109 80.7286 83.4109 99.8316Z" stroke="#F0F0F0" stroke-width="3.98951" stroke-linecap="round" stroke-linejoin="round"/>
<path d="M65.6045 72.7029C75.4186 53.7661 95.2066 40.8267 118 40.8267L118 24.4299C120.58 24.4299 129.609 24.9086 132.788 25.6932" stroke="#F0F0F0" stroke-width="3.98951" stroke-linecap="round" stroke-linejoin="round"/>
<path d="M197.697 133.33C184.611 164.422 153.852 186.258 118 186.258C81.496 186.258 50.2714 163.624 37.6114 131.615" stroke="#F0F0F0" stroke-width="3.98951" stroke-linecap="round" stroke-linejoin="round"/>
<path d="M38.3029 66.3329C51.3885 35.2414 82.1476 13.4055 118 13.4055C154.504 13.4055 185.729 36.0393 198.389 68.0484" stroke="#F0F0F0" stroke-width="3.98951" stroke-linecap="round" stroke-linejoin="round"/>
<path d="M206.195 141.136C190.662 174.262 157.004 197.202 118 197.202C76.2165 197.202 40.5769 170.871 26.7599 133.902" stroke="#F0F0F0" stroke-width="3.98951" stroke-linecap="round" stroke-linejoin="round"/>
<path d="M29.8052 58.5268C45.3377 25.4006 78.9959 2.46093 118 2.46093C159.783 2.46094 195.423 28.7917 209.24 65.7612" stroke="#F0F0F0" stroke-width="3.98951" stroke-linecap="round" stroke-linejoin="round"/>
<path d="M72.9585 147.041C63.0379 138.091 55.6972 126.348 52.1731 113.05" stroke="#F0F0F0" stroke-width="3.98951" stroke-linecap="round" stroke-linejoin="round"/>
<path d="M69.7402 44.8694C79.0757 36.3319 90.725 30.2944 103.638 27.8209" stroke="#F0F0F0" stroke-width="3.98951" stroke-linecap="round" stroke-linejoin="round"/>
<path d="M15.7888 104.619L59.1946 104.619C59.1946 104.619 77.2937 123.21 83.8099 128.888C90.898 135.086 104.303 144.7 118 144.7C131.019 144.7 144.118 136.149 150.94 130.298C157.762 124.447 176.845 104.034 176.845 104.034L204.134 104.034L204.134 95.0574" stroke="#F0F0F0" stroke-width="3.98951" stroke-linecap="round" stroke-linejoin="round"/>
<path d="M50.072 63.3408L65.6045 72.7029" stroke="#F0F0F0" stroke-width="3.98951" stroke-linecap="round" stroke-linejoin="round"/>
<path d="M19.765 85.4427L39.5796 85.4427" stroke="#F0F0F0" stroke-width="3.98951" stroke-linecap="round" stroke-linejoin="round"/>
<path d="M37.4917 75.562L48.4363 75.562" stroke="#F0F0F0" stroke-width="3.98951" stroke-linecap="round" stroke-linejoin="round"/>
<path d="M38.3029 66.3329L23.8343 66.3329L23.8343 75.562L8.10233 75.562" stroke="#F0F0F0" stroke-width="3.98951" stroke-linecap="round" stroke-linejoin="round"/>
<path d="M29.8053 58.5268L17.0122 58.5268" stroke="#F0F0F0" stroke-width="3.98951" stroke-linecap="round" stroke-linejoin="round"/>
<path d="M2.92926 92.3845L9.49866 92.3845" stroke="#F0F0F0" stroke-width="3.98951" stroke-linecap="round" stroke-linejoin="round"/>
<path d="M31.8666 104.619L31.8666 95.6426L59.1548 95.6426C59.1548 95.6426 78.0651 75.3892 85.06 69.3783C91.8821 63.527 104.981 54.9762 118 54.9762C131.697 54.9762 145.102 64.5909 152.19 70.788C158.706 76.4664 176.805 95.0575 176.805 95.0575L220.211 95.0575" stroke="#F0F0F0" stroke-width="3.98951" stroke-linecap="round" stroke-linejoin="round"/>
<path d="M11.7461 120.643L43.6223 120.643" stroke="#F0F0F0" stroke-width="3.98951" stroke-linecap="round" stroke-linejoin="round"/>
<path d="M26.76 133.889L17.3846 133.889" stroke="#F0F0F0" stroke-width="3.98951" stroke-linecap="round" stroke-linejoin="round"/>
<path d="M89.9937 160.539C92.3874 162.001 99.8078 164.728 103.757 165.073" stroke="#F0F0F0" stroke-width="3.98951" stroke-linecap="round" stroke-linejoin="round"/>
<path d="M103.212 173.97C106.391 174.741 115.433 175.233 118 175.233L118 158.836C140.807 158.836 160.581 145.897 170.396 126.96" stroke="#F0F0F0" stroke-width="3.98951" stroke-linecap="round" stroke-linejoin="round"/>
<path d="M63.5432 47.968C63.5432 49.6792 64.9305 51.0665 66.6417 51.0665C68.353 51.0665 69.7402 49.6792 69.7402 47.968C69.7402 46.2567 68.353 44.8694 66.6417 44.8694C64.9305 44.8694 63.5432 46.2567 63.5432 47.968Z" stroke="#F0F0F0" stroke-width="3.98951" stroke-linecap="round" stroke-linejoin="round"/>
<path d="M72.3468 149.98C72.3468 151.816 73.8352 153.304 75.6713 153.304C77.5075 153.304 78.9959 151.816 78.9959 149.98C78.9959 148.144 77.5075 146.655 75.6713 146.655C73.8352 146.655 72.3468 148.144 72.3468 149.98Z" stroke="#F0F0F0" stroke-width="3.98951" stroke-linecap="round" stroke-linejoin="round"/>
<path d="M105.167 99.8316C105.167 106.919 110.913 112.664 118 112.664C125.087 112.664 130.833 106.919 130.833 99.8316C130.833 92.7442 125.087 86.9987 118 86.9987C110.913 86.9987 105.167 92.7442 105.167 99.8316Z" stroke="#F0F0F0" stroke-width="3.98951" stroke-linecap="round" stroke-linejoin="round"/>
</svg>
